<?xml version="1.0" standalone="no"?>
<!DOCTYPE svg PUBLIC "-//W3C//DTD SVG 20010904//EN"
 "http://www.w3.org/TR/2001/REC-SVG-20010904/DTD/svg10.dtd">
<svg version="1.0" xmlns="http://www.w3.org/2000/svg"
 width="500.000000pt" height="500.000000pt" viewBox="0 0 500.000000 500.000000"
 preserveAspectRatio="xMidYMid meet">

<g transform="translate(0.000000,500.000000) scale(0.100000,-0.100000)"
fill="#000000" stroke="none">
<path d="M2520 4300 c-244 -27 -534 -196 -675 -394 -74 -104 -179 -336 -191
-420 -3 -23 -9 -50 -14 -61 -5 -11 -11 -41 -15 -67 -4 -33 -11 -48 -21 -48 -8
0 -12 5 -9 10 8 13 -21 13 -46 0 -14 -8 -19 -8 -17 0 3 13 -90 21 -98 8 -3 -4
-10 -5 -18 -2 -7 3 -25 0 -39 -5 -26 -10 -40 2 -14 12 7 3 5 6 -6 6 -57 3
-117 -52 -156 -142 -11 -26 -25 -47 -31 -47 -6 0 -8 -5 -4 -11 4 -7 0 -9 -13
-5 -33 11 -45 -16 -41 -94 3 -66 2 -70 -19 -70 -23 0 -92 -36 -105 -55 -4 -5
-8 -25 -8 -43 l0 -33 26 28 25 28 -15 -30 c-8 -16 -22 -39 -30 -50 l-16 -20 5
20 c3 11 -11 -13 -30 -52 -25 -52 -41 -73 -54 -73 -25 0 -71 -55 -71 -85 0
-13 -3 -31 -7 -41 -5 -13 -3 -15 7 -9 10 6 12 0 7 -31 -5 -29 -4 -35 4 -24 8
11 9 7 5 -18 -4 -23 -2 -31 6 -26 8 5 9 -3 5 -29 -3 -19 0 -61 7 -91 13 -56
13 -56 -10 -56 -36 0 -62 -33 -69 -87 -3 -26 -12 -73 -20 -103 -8 -30 -17 -88
-21 -129 -6 -66 -11 -78 -37 -102 -24 -22 -28 -32 -23 -54 8 -31 -4 -74 -44
-160 -34 -74 -59 -174 -68 -280 l-7 -79 -70 -30 c-79 -32 -136 -69 -182 -116
-54 -56 -51 -86 16 -165 l26 -30 -28 25 c-16 14 -31 23 -34 20 -4 -3 -7 5 -8
17 -1 13 -5 26 -8 29 -4 4 -5 -10 -4 -29 2 -20 -1 -39 -7 -41 -6 -2 -2 -5 9
-5 15 -1 17 -3 6 -10 -23 -15 -23 -89 0 -140 30 -68 55 -89 139 -115 166 -53
338 -58 581 -16 290 49 471 106 465 146 -3 21 -34 44 -51 38 -8 -3 -15 7 -19
27 -8 44 -8 61 3 55 5 -4 209 -13 453 -21 588 -20 807 -31 1443 -75 297 -21
569 -27 617 -15 15 4 29 13 32 22 3 8 11 11 17 7 7 -4 9 -3 6 3 -3 5 3 15 13
23 10 8 17 17 14 22 -3 4 -2 8 3 9 4 0 19 2 32 3 13 2 28 10 33 19 5 10 20 17
33 17 13 0 27 4 30 10 3 5 13 10 22 10 9 0 23 8 32 18 28 30 59 42 93 36 32
-6 32 -6 12 9 -11 9 -45 22 -75 30 l-54 15 88 1 c112 1 144 15 226 96 36 36
81 79 99 97 45 43 79 113 91 189 10 58 -3 261 -24 384 -3 17 -9 65 -15 108 -5
43 -15 88 -22 100 -6 12 -11 36 -9 54 3 39 -41 90 -85 99 -26 5 -32 2 -37 -15
-4 -17 -2 -19 12 -11 23 12 62 -8 77 -39 13 -24 12 -25 -158 -114 -21 -10 -38
-24 -38 -31 -1 -24 -30 29 -30 55 0 42 31 73 71 71 19 -1 41 3 49 8 8 5 10 10
5 10 -6 0 -12 11 -13 25 -1 14 3 25 8 25 5 0 7 6 5 13 -3 6 -11 85 -20 174
-14 157 -27 213 -49 213 -6 0 -5 -5 2 -12 7 -7 12 -17 12 -22 -1 -13 -24 25
-25 39 0 6 -16 15 -35 21 -30 10 -37 18 -51 65 -8 30 -24 70 -34 89 -11 21
-17 52 -16 77 2 51 -16 83 -46 83 -20 0 -22 -2 -11 -19 7 -11 15 -18 19 -15
12 7 29 -23 26 -44 -4 -30 -17 -40 -17 -14 0 12 -13 35 -28 52 -26 27 -30 28
-49 15 -20 -14 -21 -13 -28 48 -11 97 -30 162 -49 165 -9 2 -16 -1 -16 -7 0
-6 -7 -11 -16 -11 -13 0 -14 3 -5 14 15 18 -5 26 -65 26 l-44 0 7 72 c4 49 3
69 -4 65 -7 -5 -9 0 -6 13 11 42 -37 66 -63 33 -11 -14 -13 -14 -9 -2 5 13 -6
15 -82 12 -48 -2 -99 -5 -113 -7 -14 -1 -28 2 -33 8 -5 7 -12 5 -22 -8 -9 -12
-15 -15 -15 -7 0 8 -6 11 -16 7 -14 -5 -15 1 -9 43 4 31 3 51 -4 56 -6 3 -11
18 -11 33 0 67 -77 281 -95 265 -4 -5 -5 -2 -1 5 11 18 -65 146 -77 129 -6 -8
-7 -6 -3 6 7 21 -41 90 -55 81 -5 -3 -6 1 -4 9 8 20 -117 136 -221 204 -100
65 -232 116 -350 133 -75 10 -96 10 -194 0z m213 -27 c-7 -2 -19 -2 -25 0 -7
3 -2 5 12 5 14 0 19 -2 13 -5z m-113 -24 c-21 -6 -17 -8 20 -10 25 -2 58 -2
74 -2 21 1 25 -1 15 -8 -11 -7 -10 -9 6 -9 10 0 61 -20 112 -45 67 -33 113
-64 163 -111 39 -37 70 -63 70 -58 0 17 54 -44 78 -90 15 -27 33 -58 39 -70 7
-12 13 -30 13 -41 0 -11 -16 13 -35 53 -35 74 -84 146 -92 138 -3 -3 6 -20 20
-38 69 -90 126 -269 130 -405 1 -46 5 -83 10 -83 4 0 7 15 8 33 0 29 1 30 9 9
5 -12 7 -28 4 -36 -3 -8 -9 -45 -12 -83 -7 -65 -8 -68 -34 -71 -27 -3 -27 -2
-20 30 4 18 7 87 7 153 -1 143 -17 214 -77 335 -78 157 -243 295 -413 346 -85
25 -264 25 -368 -1 -306 -75 -541 -342 -632 -717 -14 -57 -25 -118 -25 -136 0
-33 -17 -49 -44 -39 -12 5 -12 14 -1 61 7 30 11 57 8 60 -3 3 6 10 19 15 19 7
27 20 33 48 9 50 52 178 77 227 14 27 17 41 9 49 -8 8 -11 5 -11 -11 0 -12 -4
-22 -9 -22 -5 0 -12 -17 -17 -37 -4 -21 -9 -31 -11 -21 -5 18 36 111 62 143
15 19 15 18 1 -12 -10 -20 -12 -34 -6 -38 6 -3 10 -2 10 3 0 5 18 37 41 72 22
34 37 65 34 68 -3 4 -10 0 -15 -8 -6 -8 -10 -10 -10 -5 1 12 25 45 33 45 4 0
4 -8 1 -17 -3 -10 8 -2 24 17 31 35 35 53 7 30 -10 -8 -15 -9 -15 -1 0 10 5
12 37 15 21 2 54 39 42 47 -8 5 -8 8 0 13 6 4 11 2 11 -5 0 -8 7 -5 20 6 11
10 17 22 13 28 -3 5 -1 7 4 4 6 -4 22 2 34 14 13 11 18 18 12 14 -7 -3 -13 -1
-13 5 0 7 7 10 15 6 8 -3 31 4 51 16 27 16 32 23 22 30 -10 7 -9 8 5 4 9 -3
24 -3 33 1 13 5 13 8 2 15 -10 8 -9 9 4 4 19 -6 86 18 72 26 -5 3 -4 4 2 2 19
-4 135 32 128 39 -4 4 6 5 22 1 16 -3 39 -2 52 3 12 4 55 8 95 9 45 0 63 -2
47 -7z m240 -9 c8 -5 11 -10 5 -10 -5 0 -17 5 -25 10 -8 5 -10 10 -5 10 6 0
17 -5 25 -10z m-34 -37 c-6 -6 -36 9 -36 18 0 5 9 4 20 -3 10 -7 18 -14 16
-15z m114 2 c17 -9 30 -18 30 -21 0 -4 -59 23 -69 32 -10 9 13 3 39 -11z m-75
-15 c3 -6 -1 -7 -9 -4 -18 7 -21 14 -7 14 6 0 13 -4 16 -10z m-395 -9 c0 -4
-19 -11 -42 -15 -24 -3 -54 -9 -68 -12 -14 -4 -22 -3 -17 1 4 5 33 14 65 21
31 7 58 13 60 13 1 1 2 -3 2 -8z m107 2 c-20 -2 -52 -2 -70 0 -17 2 0 4 38 4
39 0 53 -2 32 -4z m106 -10 c-7 -2 -19 -2 -25 0 -7 3 -2 5 12 5 14 0 19 -2 13
-5z m243 -14 c8 -14 -10 -11 -32 6 -18 13 -18 14 4 8 12 -3 25 -9 28 -14z
m177 -78 c27 -25 62 -66 78 -91 17 -25 20 -31 7 -15 -30 39 -133 143 -178 179
l-35 28 40 -28 c22 -15 62 -48 88 -73z m-847 29 c-89 -45 -129 -72 -201 -139
l-50 -46 40 43 c66 72 233 182 275 181 8 0 -21 -18 -64 -39z m513 5 c260 -88
421 -332 421 -642 0 -90 -6 -109 -29 -90 -13 12 -41 13 -151 7 -180 -10 -946
-7 -957 3 -4 5 -8 75 -8 155 0 135 3 154 28 227 38 108 77 173 141 236 30 29
52 57 50 61 -3 4 3 5 12 1 11 -4 15 -3 11 4 -7 12 81 45 164 63 81 17 225 5
318 -25z m186 25 c3 -5 1 -10 -4 -10 -6 0 -11 5 -11 10 0 6 2 10 4 10 3 0 8
-4 11 -10z m51 -42 l29 -33 -32 29 c-31 28 -38 36 -30 36 2 0 16 -15 33 -32z
m74 -74 c0 -4 -9 1 -20 11 -11 10 -20 23 -20 28 0 6 9 1 20 -11 11 -12 20 -24
20 -28z m-850 32 c0 -2 -24 -19 -52 -37 -59 -36 -179 -152 -221 -214 -37 -56
-49 -133 -45 -290 l3 -133 -40 -4 c-22 -2 -52 -2 -68 0 -32 4 -32 1 15 157 49
164 131 300 251 412 60 57 157 124 157 109z m1005 -146 c9 -16 13 -30 11 -30
-3 0 -12 14 -21 30 -9 17 -13 30 -11 30 3 0 12 -13 21 -30z m-1388 -52 c-3 -8
-6 -5 -6 6 -1 11 2 17 5 13 3 -3 4 -12 1 -19z m1433 -43 c0 -5 -5 -3 -10 5 -5
8 -10 20 -10 25 0 6 5 3 10 -5 5 -8 10 -19 10 -25z m100 5 c6 -11 8 -20 6 -20
-3 0 -10 9 -16 20 -6 11 -8 20 -6 20 3 0 10 -9 16 -20z m-98 -42 c-7 -7 -12
-8 -12 -2 0 6 3 14 7 17 3 4 9 5 12 2 2 -3 -1 -11 -7 -17z m-47 -25 c2 -15 11
-65 21 -111 11 -52 14 -86 8 -92 -6 -6 -10 10 -12 43 -1 30 -10 82 -21 117
-11 35 -18 68 -14 72 8 14 15 3 18 -29z m175 2 c0 -5 -5 -3 -10 5 -5 8 -10 20
-10 25 0 6 5 3 10 -5 5 -8 10 -19 10 -25z m-93 -62 c9 -37 15 -77 15 -88 -1
-11 -2 -32 -2 -47 -1 -16 -6 -28 -12 -28 -7 0 -8 17 -4 49 4 31 3 52 -4 56 -6
4 -8 15 -5 26 4 10 2 19 -4 19 -6 0 -8 16 -5 38 4 28 3 33 -5 22 -12 -17 -14
-10 -5 15 9 24 15 13 31 -62z m132 -13 c11 -24 11 -24 -3 -6 -9 11 -16 24 -16
30 0 12 5 7 19 -24z m-1606 -35 c-3 -9 -8 -14 -10 -11 -3 3 -2 9 2 15 9 16 15
13 8 -4z m-121 -37 c-5 -7 -13 -32 -17 -55 -4 -24 -10 -43 -14 -43 -4 0 -3 19
3 43 11 43 23 67 33 67 3 0 1 -6 -5 -12z m84 -84 c-14 -48 -26 -96 -26 -105 0
-9 -9 -27 -21 -40 l-20 -24 6 25 c9 35 54 180 67 213 22 57 18 16 -6 -69z
m1577 -113 c1 -44 -2 -65 -11 -68 -7 -3 -12 -1 -11 4 7 41 -16 44 -25 2 -3
-18 -11 -29 -18 -27 -9 3 -13 27 -13 72 0 59 2 66 18 62 15 -4 17 4 18 67 l1
72 20 -60 c11 -33 20 -89 21 -124z m-1699 55 c-3 -14 -10 -26 -14 -26 -5 0 -3
13 3 30 13 35 21 33 11 -4z m1845 -63 c0 -25 -1 -25 -8 -8 -5 11 -7 23 -4 28
8 14 13 7 12 -20z m-1569 2 c0 -8 -4 -15 -10 -15 -5 0 -10 7 -10 15 0 8 5 15
10 15 6 0 10 -7 10 -15z m-195 -90 c-7 -28 -14 -41 -14 -29 -1 22 19 87 25 82
2 -2 -3 -26 -11 -53z m1352 23 c-3 -8 -6 -5 -6 6 -1 11 2 17 5 13 3 -3 4 -12
1 -19z m-1317 -17 c-9 -17 -8 -21 5 -21 9 0 14 4 10 9 -3 5 -1 12 5 16 5 3 10
-1 10 -9 0 -20 -37 -41 -43 -23 -4 13 13 60 20 53 3 -2 0 -14 -7 -25z m56 -12
l-15 -22 2 24 c0 13 6 27 12 31 17 12 18 -10 1 -33z m97 4 c-5 -12 -3 -14 8
-8 8 4 11 5 7 1 -3 -4 -8 -6 -11 -4 -3 2 -15 -6 -28 -17 -18 -15 -20 -15 -10
-2 9 11 10 17 2 17 -9 0 -9 18 -2 48 1 1 10 -2 21 -8 12 -7 17 -16 13 -27z
m547 34 c0 -2 -17 -19 -37 -38 -21 -18 -32 -27 -25 -19 6 7 12 23 12 33 0 13
5 17 15 14 8 -4 17 -2 20 3 6 9 15 14 15 7z m175 -27 c-10 -11 -20 -18 -23
-15 -3 3 3 14 13 25 10 11 20 18 23 15 3 -3 -3 -14 -13 -25z m247 -12 c-10
-10 -10 -8 -2 37 1 6 4 2 7 -9 3 -10 0 -23 -5 -28z m43 12 c-4 -12 -9 -19 -12
-17 -3 3 -2 15 2 27 4 12 9 19 12 17 3 -3 2 -15 -2 -27z m33 4 c0 -17 -3 -22
-8 -13 -5 6 -6 18 -3 26 8 19 11 16 11 -13z m102 17 c0 -5 -7 -11 -14 -14 -10
-4 -13 -1 -9 9 6 15 23 19 23 5z m-1116 -13 c-5 -8 0 -9 17 -5 23 6 23 5 5 -8
-16 -12 -22 -12 -28 -2 -11 17 -10 27 3 27 5 0 7 -5 3 -12z m119 -8 c-3 -12
-8 -19 -11 -16 -5 6 5 36 12 36 2 0 2 -9 -1 -20z m61 -4 c-7 -17 -24 -22 -24
-6 0 6 -4 10 -10 10 -5 0 -9 -3 -8 -7 2 -14 -14 -43 -25 -43 -5 0 -3 8 6 18 8
9 17 22 19 27 2 6 8 10 15 10 6 0 15 4 19 8 11 11 15 2 8 -17z m51 5 c-3 -6
-11 -9 -16 -6 -5 3 -6 -1 -3 -9 3 -9 1 -16 -5 -16 -18 0 -12 38 7 42 21 5 26
2 17 -11z m25 -6 c-7 -8 -17 -15 -23 -15 -5 0 -2 9 8 20 21 23 35 19 15 -5z
m105 -3 c-5 -29 -12 -38 -22 -28 -4 4 -2 10 4 14 7 5 7 11 -3 20 -15 14 -19 2
-16 -43 2 -18 1 -19 -9 -2 -6 9 -14 15 -20 12 -5 -4 -9 -2 -9 4 0 6 -7 8 -15
5 -21 -8 -19 0 7 22 19 17 21 17 15 2 -4 -10 -2 -18 3 -18 6 0 10 6 10 14 0
16 12 22 41 22 14 0 18 -6 14 -24z m69 5 c-3 -7 2 -3 10 7 14 18 16 18 16 3 0
-10 -7 -20 -15 -23 -8 -3 -17 -15 -21 -26 -3 -11 -8 -17 -11 -15 -2 3 0 14 6
26 6 11 7 22 2 25 -5 3 -11 -3 -14 -14 -3 -11 -11 -20 -19 -19 -10 0 -10 2 0
6 6 2 12 12 12 21 0 15 -2 15 -10 2 -8 -13 -10 -12 -10 4 0 12 5 16 15 13 8
-4 17 -2 20 4 9 13 27 0 19 -14z m132 8 c24 15 24 15 12 -4 -7 -11 -14 -18
-17 -16 -2 3 -11 -1 -19 -8 -13 -9 -14 -9 -8 1 4 6 3 12 -3 12 -5 0 -13 -4
-16 -10 -3 -5 -11 -10 -17 -10 -5 0 0 11 13 25 19 19 25 21 27 9 3 -13 7 -13
28 1z m54 -6 c0 -5 -7 -9 -15 -9 -9 0 -12 6 -9 15 6 15 24 11 24 -6z m40 12
c0 -5 -7 -11 -14 -14 -10 -4 -13 -1 -9 9 6 15 23 19 23 5z m116 0 c25 21 25 3
0 -20 l-23 -22 0 28 c0 15 2 22 4 15 4 -10 8 -10 19 -1z m47 -6 c-3 -9 -8 -14
-10 -11 -3 3 -2 9 2 15 9 16 15 13 8 -4z m-908 -19 c0 -13 -4 -28 -8 -32 -4
-5 -5 0 -1 11 6 15 4 17 -9 12 -15 -6 -16 -3 -7 13 15 27 26 25 25 -4z m182
18 c-3 -3 -12 -4 -19 -1 -8 3 -5 6 6 6 11 1 17 -2 13 -5z m637 -9 c-4 -8 -10
-15 -15 -15 -4 0 -6 7 -3 15 4 8 10 15 15 15 4 0 6 -7 3 -15z m133 -7 c2 -18
0 -20 -7 -8 -12 18 -13 30 -2 30 4 0 9 -10 9 -22z m-1507 9 c0 -2 -12 -14 -27
-28 l-28 -24 24 28 c23 25 31 32 31 24z m690 -17 c-24 -15 -36 -11 -14 4 10 8
21 12 24 10 2 -3 -2 -9 -10 -14z m1821 -7 c-12 -20 -14 -14 -5 12 4 9 9 14 11
11 3 -2 0 -13 -6 -23z m-1211 13 c0 -2 -8 -10 -17 -17 -16 -13 -17 -12 -4 4
13 16 21 21 21 13z m132 -18 c-7 -7 -12 -8 -12 -2 0 6 3 14 7 17 3 4 9 5 12 2
2 -3 -1 -11 -7 -17z m118 7 c-7 -8 -17 -15 -23 -15 -6 0 -2 7 9 15 25 19 30
19 14 0z m405 7 c-9 -9 -68 -12 -82 -3 -10 5 3 8 36 8 28 -1 49 -3 46 -5z
m-1622 -29 c-7 -2 -19 -2 -25 0 -7 3 -2 5 12 5 14 0 19 -2 13 -5z m44 1 c-3
-3 -12 -4 -19 -1 -8 3 -5 6 6 6 11 1 17 -2 13 -5z m433 2 c0 -3 -4 -8 -10 -11
-5 -3 -10 -1 -10 4 0 6 5 11 10 11 6 0 10 -2 10 -4z m320 -6 c0 -5 -5 -10 -11
-10 -5 0 -7 5 -4 10 3 6 8 10 11 10 2 0 4 -4 4 -10z m190 6 c0 -3 -4 -8 -10
-11 -5 -3 -10 -1 -10 4 0 6 5 11 10 11 6 0 10 -2 10 -4z m-903 -38 c-3 -8 -6
-5 -6 6 -1 11 2 17 5 13 3 -3 4 -12 1 -19z m2070 -40 c-3 -7 -5 -2 -5 12 0 14
2 19 5 13 2 -7 2 -19 0 -25z m-2134 -42 c18 2 23 -11 7 -21 -5 -3 -10 0 -10 7
0 9 -2 10 -8 1 -5 -8 -12 -8 -25 2 -13 10 -15 14 -5 17 7 3 15 2 18 -2 3 -4
13 -6 23 -4z m507 -26 c16 0 17 -4 9 -32 -12 -44 -12 -44 11 -23 14 13 17 21
9 26 -8 5 -8 8 0 13 6 4 11 2 11 -3 0 -6 7 -11 16 -11 8 0 13 4 10 8 -2 4 0
14 6 22 8 12 9 12 4 -2 -6 -20 10 -25 17 -5 3 6 6 2 6 -11 1 -13 5 -20 11 -17
6 4 8 10 5 15 -6 10 23 35 32 26 3 -3 1 -6 -5 -6 -7 0 -12 -6 -12 -12 0 -7 -4
-19 -9 -27 -8 -12 -13 -12 -24 -3 -12 10 -18 8 -31 -12 -9 -14 -16 -27 -16
-29 0 -3 20 3 44 11 25 9 43 19 40 23 -2 3 5 14 16 24 11 10 20 13 20 7 0 -6
-5 -14 -11 -17 -6 -4 -8 -13 -5 -21 3 -8 1 -14 -3 -14 -5 0 -28 -23 -51 -50
-23 -28 -36 -48 -28 -45 23 9 63 -11 109 -52 47 -42 62 -72 46 -91 -6 -7 -6
-12 -1 -11 22 4 25 -3 11 -24 l-15 -23 73 13 c68 13 80 12 176 -9 56 -13 104
-28 106 -34 5 -16 -95 -35 -147 -28 -25 3 -74 9 -108 14 -35 5 -69 7 -76 4 -6
-2 -29 4 -51 15 -22 10 -42 18 -46 16 -7 -5 -4 54 5 83 4 12 4 22 -1 21 -26
-4 -47 6 -98 48 -49 39 -60 44 -76 35 -29 -18 -37 -14 -31 14 3 18 1 25 -6 20
-6 -3 -13 -2 -17 4 -3 6 -13 6 -23 1 -50 -25 -152 -51 -192 -48 -25 2 -44 6
-43 11 3 10 73 66 87 68 39 5 66 4 66 -3 0 -5 4 -9 10 -9 5 0 0 19 -10 43 -27
59 -26 77 7 77 29 0 97 -46 88 -61 -4 -5 -3 -9 2 -9 4 0 19 24 32 53 13 28 25
46 28 40 3 -7 13 -13 23 -13z m1617 -2 c-3 -8 -6 -5 -6 6 -1 11 2 17 5 13 3
-3 4 -12 1 -19z m-1107 -12 c0 -8 -7 -19 -15 -26 -8 -7 -13 -16 -10 -20 7 -12
-5 -38 -20 -44 -8 -3 -17 0 -21 6 -4 6 -3 8 3 5 13 -8 37 19 29 32 -4 5 -1 13
5 17 8 4 7 9 -2 15 -8 5 -17 3 -21 -4 -6 -9 -10 -9 -17 2 -5 8 -14 10 -21 6
-9 -5 -11 -4 -6 4 5 7 16 9 28 5 14 -4 18 -2 14 5 -4 6 -2 11 3 11 6 0 11 -5
11 -11 0 -5 4 -8 9 -5 5 4 12 0 15 -6 4 -7 4 -3 2 10 -2 12 0 20 5 16 5 -3 9
-11 9 -18z m44 -17 c-1 -22 -5 -43 -9 -47 -4 -4 -5 5 -3 21 3 15 1 27 -3 27
-15 0 0 35 17 40 0 0 -1 -18 -2 -41z m-1391 11 c-5 -19 -23 -39 -23 -25 0 9
20 45 24 45 2 0 2 -9 -1 -20z m237 -1 c-19 -16 -20 -19 -6 -15 15 5 17 4 7 -8
-8 -10 -9 -16 -1 -21 5 -3 10 -1 10 4 0 6 5 11 12 11 6 0 4 -8 -6 -19 -11 -12
-15 -27 -12 -39 4 -12 0 -24 -11 -33 -15 -11 -16 -11 -5 1 17 20 15 35 -3 20
-12 -10 -15 -10 -15 1 0 8 -6 5 -15 -7 -13 -16 -14 -16 -9 -1 3 9 1 17 -5 17
-13 0 -5 48 11 65 6 6 7 3 2 -8 -5 -13 -2 -16 12 -11 18 5 18 5 2 -9 -10 -8
-18 -20 -18 -28 0 -9 7 -6 22 8 18 19 20 24 8 39 -13 14 -11 19 9 35 13 11 26
19 30 19 3 0 -5 -10 -19 -21z m350 -4 c0 -8 -4 -16 -9 -19 -5 -3 -8 5 -8 19 0
14 3 22 8 19 5 -3 9 -11 9 -19z m150 15 c0 -5 -5 -10 -11 -10 -5 0 -7 5 -4 10
3 6 8 10 11 10 2 0 4 -4 4 -10z m298 -23 c-7 -12 -11 -27 -10 -33 1 -6 -5 -17
-13 -24 -10 -9 -15 -9 -15 -1 0 6 4 11 9 11 5 0 9 10 10 23 1 45 5 55 17 50
11 -4 11 -9 2 -26z m202 13 c-5 -9 -7 -26 -4 -37 3 -12 0 -24 -7 -28 -8 -5
-10 -4 -5 4 10 15 -3 53 -15 46 -12 -8 -12 8 1 21 18 18 40 13 30 -6z m300 -5
c-7 -9 -15 -13 -17 -11 -6 6 20 36 26 30 2 -2 -2 -10 -9 -19z m53 1 c-10 -13
-20 -22 -22 -20 -4 4 29 44 36 44 2 0 -4 -11 -14 -24z m-1759 -8 c-5 -7 -9
-19 -11 -27 -1 -7 -7 -19 -14 -25 -9 -8 -9 -6 -1 10 6 12 9 24 5 27 -3 4 0 13
7 22 15 18 26 13 14 -7z m137 3 c-6 -10 -8 -21 -6 -25 3 -3 2 -4 -2 -1 -3 3
-17 -2 -30 -10 -33 -22 -28 -10 10 25 38 35 41 36 28 11z m548 -38 c-7 -21
-12 -41 -11 -45 1 -5 -2 -8 -8 -8 -5 0 -18 -9 -28 -20 -18 -19 -18 -19 -18 18
1 24 10 48 25 67 13 17 21 22 18 12 -4 -10 -7 -25 -7 -33 0 -7 -6 -11 -12 -9
-8 3 -14 -5 -15 -21 -1 -26 -1 -26 19 -7 17 17 25 40 30 91 1 8 5 9 11 3 6 -6
4 -24 -4 -48z m101 31 c-13 -34 -13 -37 5 -30 8 3 15 2 15 -2 0 -11 -41 -34
-48 -28 -3 3 0 6 6 6 7 0 12 5 12 10 0 19 -22 10 -27 -11 -4 -15 -8 -17 -13
-8 -10 15 -1 41 11 34 4 -3 15 8 24 25 19 37 28 40 15 4z m137 4 c-3 -8 -6 -5
-6 6 -1 11 2 17 5 13 3 -3 4 -12 1 -19z m346 -15 c-3 -7 -9 -13 -13 -13 -5 0
-11 -10 -13 -22 -4 -23 -4 -23 -6 -1 0 12 5 28 12 35 8 7 12 20 10 28 -4 13
-3 13 5 1 6 -8 8 -20 5 -28z m16 -24 c-17 -34 -32 -59 -35 -57 -6 7 46 118 56
118 4 0 -5 -28 -21 -61z m61 52 c0 -5 -7 -14 -15 -21 -16 -14 -18 -10 -9 14 6
17 24 22 24 7z m261 -14 c-10 -9 -11 -8 -5 6 3 10 9 15 12 12 3 -3 0 -11 -7
-18z m47 -2 c-3 -3 -9 2 -12 12 -6 14 -5 15 5 6 7 -7 10 -15 7 -18z m139 -10
c0 -19 -6 -36 -13 -39 -10 -4 -11 1 -4 19 6 17 6 25 -1 25 -7 0 7 25 17 30 0
0 1 -16 1 -35z m347 19 c3 -9 6 -31 6 -49 0 -19 4 -36 9 -39 5 -4 7 2 5 12 -5
18 33 83 52 89 11 4 11 -70 0 -105 -21 -65 -11 -91 27 -71 25 14 106 5 145
-15 18 -9 39 -27 48 -40 8 -14 30 -30 47 -36 l32 -12 -27 -8 c-34 -10 -101 7
-179 43 -31 15 -67 27 -80 27 -14 0 -31 6 -38 13 -11 10 -13 10 -7 0 11 -20
-12 -15 -24 5 -11 16 -11 16 -6 0 4 -14 0 -18 -19 -18 -14 0 -24 -3 -24 -7 4
-23 -5 -22 -37 6 -19 17 -39 29 -44 26 -5 -3 -11 -1 -15 5 -3 5 -12 10 -18 10
-7 0 -6 -4 3 -10 12 -8 11 -10 -7 -10 -35 0 -52 -10 -46 -28 4 -14 3 -14 -5
-3 -9 12 -15 13 -37 3 -35 -16 -129 -16 -119 0 5 7 3 8 -7 2 -13 -8 -59 -7
-68 2 -14 13 97 73 151 82 l39 7 -20 22 c-12 12 -21 25 -21 28 0 13 38 3 57
-14 12 -11 24 -17 27 -14 3 4 6 0 6 -7 0 -7 2 -11 5 -8 3 3 -2 21 -10 41 -20
48 -19 67 4 67 27 0 57 -29 69 -67 8 -25 8 -33 -1 -34 -9 0 -9 -2 1 -6 6 -2
10 -9 6 -14 -3 -5 0 -9 6 -9 6 0 9 20 6 55 -5 61 3 74 29 45 25 -27 29 -26 44
15 13 38 25 44 35 19z m-1694 2 c0 -3 -4 -8 -10 -11 -5 -3 -10 -1 -10 4 0 6 5
11 10 11 6 0 10 -2 10 -4z m135 -21 c-1 -12 -7 -30 -13 -41 -13 -22 -15 -9 -3
21 5 13 3 23 -6 30 -12 9 -11 11 5 11 14 0 19 -6 17 -21z m55 11 c0 -7 -7 -19
-15 -26 -8 -7 -15 -19 -15 -26 0 -8 -4 -14 -10 -14 -13 0 -13 17 0 25 5 3 6
13 3 21 -3 9 0 20 8 25 20 12 29 11 29 -5z m83 -29 c-7 -14 -7 -29 -2 -39 6
-11 5 -19 -1 -23 -6 -4 -10 -3 -9 2 1 4 1 15 0 23 -1 13 -3 13 -12 0 -9 -12
-10 -11 -4 5 4 11 8 27 10 35 2 8 4 17 5 20 1 3 2 10 0 15 -1 6 4 4 11 -2 9
-9 10 -19 2 -36z m506 0 c-5 -20 -15 -37 -21 -37 -6 0 -8 -9 -5 -20 3 -10 -1
-24 -9 -31 -10 -8 -14 -8 -14 0 0 6 6 11 13 11 8 0 7 3 -3 10 -12 7 -11 12 5
30 11 12 20 27 20 33 1 16 17 49 21 44 2 -2 -1 -20 -7 -40z m596 23 c-3 -4 1
-11 7 -13 9 -4 10 -8 2 -14 -6 -4 -13 -15 -16 -23 -3 -8 -5 4 -5 27 0 23 4 40
9 37 4 -3 6 -9 3 -14z m-1758 -12 c2 -21 -22 -58 -37 -58 -4 0 -7 7 -7 14 0 8
3 15 6 14 26 -3 33 4 27 27 -4 14 -3 25 2 25 4 0 8 -10 9 -22z m120 0 c-3 -8
-6 -5 -6 6 -1 11 2 17 5 13 3 -3 4 -12 1 -19z m44 -3 c5 4 9 1 9 -5 0 -7 -7
-10 -15 -6 -8 3 -15 0 -15 -6 0 -6 -2 -9 -5 -7 -2 3 -1 16 2 29 6 20 8 21 11
7 2 -9 8 -15 13 -12z m119 21 c0 -3 -4 -8 -10 -11 -5 -3 -10 -1 -10 4 0 6 5
11 10 11 6 0 10 -2 10 -4z m120 -6 c0 -5 -5 -10 -11 -10 -5 0 -7 5 -4 10 3 6
8 10 11 10 2 0 4 -4 4 -10z m1174 -35 c-5 -11 -9 -13 -14 -6 -4 8 -15 3 -31
-13 -22 -22 -25 -22 -25 -6 0 10 3 18 6 17 3 -1 15 4 26 11 12 6 25 8 29 4 4
-4 4 4 1 18 -6 20 -5 22 4 8 5 -9 7 -24 4 -33z m944 -17 c-11 -23 -10 -30 4
-22 7 5 8 3 3 -5 -11 -19 -29 4 -20 26 4 10 8 29 7 43 l-1 25 8 -25 c4 -14 4
-33 -1 -42z m-2028 29 c0 -7 -4 -6 -10 3 -6 9 -10 10 -10 3 0 -6 -3 -19 -7
-29 -5 -13 -3 -15 7 -9 8 5 11 4 6 -3 -4 -6 -14 -8 -23 -5 -13 5 -15 1 -10
-23 3 -16 4 -23 1 -16 -5 10 -9 10 -20 1 -21 -17 -44 5 -25 24 10 10 11 9 6
-5 -4 -11 -2 -18 4 -18 6 0 11 6 11 14 0 7 7 19 16 27 8 7 13 21 11 31 -3 10
-1 16 3 13 5 -3 11 -1 15 5 8 13 25 3 25 -13z m880 13 c0 -5 -5 -10 -11 -10
-5 0 -7 5 -4 10 3 6 8 10 11 10 2 0 4 -4 4 -10z m97 -9 c-1 -11 -6 -17 -14
-14 -10 4 -11 9 -2 19 15 19 18 18 16 -5z m-1269 2 c-3 -13 13 -53 22 -53 4 0
0 -18 -11 -40 -10 -21 -19 -46 -19 -53 0 -28 -37 -97 -63 -117 -15 -12 -25
-25 -23 -29 3 -4 1 -13 -3 -20 -6 -9 -9 -3 -9 15 0 31 59 165 65 147 2 -6 -8
-31 -22 -57 -26 -47 -20 -65 8 -22 24 36 56 142 50 165 -8 30 -22 16 -18 -17
2 -16 -1 -35 -6 -43 -8 -10 -9 -8 -4 10 5 17 4 22 -6 19 -8 -3 -14 -11 -14
-20 0 -8 -8 -26 -18 -41 -9 -14 -17 -31 -17 -37 0 -5 -4 -10 -10 -10 -5 0 -10
-9 -10 -19 0 -11 -5 -23 -11 -27 -18 -11 -1 36 29 80 16 23 25 49 24 64 -2 14
0 22 6 18 5 -3 15 1 22 9 10 12 10 15 -1 15 -7 0 -3 7 9 16 13 9 21 22 18 29
-2 7 -2 16 1 19 9 8 13 8 11 -1z m45 -13 c-6 -23 -24 -22 -31 1 -3 11 -2 11 6
1 7 -11 10 -11 15 2 9 23 16 20 10 -4z m1059 -2 c-7 -7 -12 -8 -12 -2 0 6 3
14 7 17 3 4 9 5 12 2 2 -3 -1 -11 -7 -17z m92 7 c-4 -8 -11 -15 -16 -15 -6 0
-5 6 2 15 7 8 14 15 16 15 2 0 1 -7 -2 -15z m126 5 c0 -5 -5 -10 -11 -10 -5 0
-7 5 -4 10 3 6 8 10 11 10 2 0 4 -4 4 -10z m170 -10 c-6 -11 -13 -20 -16 -20
-2 0 0 9 6 20 6 11 13 20 16 20 2 0 0 -9 -6 -20z m100 0 c-6 -11 -13 -20 -16
-20 -2 0 0 9 6 20 6 11 13 20 16 20 2 0 0 -9 -6 -20z m-1700 0 c0 -5 -5 -10
-11 -10 -5 0 -7 5 -4 10 3 6 8 10 11 10 2 0 4 -4 4 -10z m293 -7 c-7 -3 -13
-9 -13 -14 0 -6 5 -7 10 -4 6 3 10 2 10 -3 0 -18 -27 -21 -27 -4 0 21 18 45
26 36 3 -4 0 -9 -6 -11z m45 -1 c-10 -2 -18 -8 -18 -14 0 -6 -3 -8 -6 -5 -11
10 17 38 30 30 7 -5 5 -9 -6 -11z m819 -7 c-4 -8 -12 -15 -19 -15 -9 0 -8 3 2
10 8 5 11 10 7 10 -5 0 -5 5 -2 11 10 15 19 3 12 -16z m353 5 c-6 -11 -13 -20
-16 -20 -2 0 0 9 6 20 6 11 13 20 16 20 2 0 0 -9 -6 -20z m-1472 -37 c9 -7 11
-13 6 -13 -6 0 -15 5 -22 12 -9 9 -12 9 -12 -3 0 -8 5 -20 10 -25 8 -8 6 -15
-5 -24 -13 -11 -15 -9 -13 11 2 18 -2 24 -14 23 -24 -2 -23 13 2 26 11 6 21
18 21 28 1 13 2 12 6 -3 3 -11 12 -26 21 -32z m1142 27 c-6 -11 -8 -25 -5 -30
3 -6 1 -10 -5 -10 -6 0 -15 -10 -20 -22 -6 -17 -9 -18 -9 -6 -1 9 3 19 8 23 5
3 12 19 16 35 4 17 11 30 16 30 6 0 5 -8 -1 -20z m-1100 6 c0 -3 -4 -8 -10
-11 -5 -3 -10 -1 -10 4 0 6 5 11 10 11 6 0 10 -2 10 -4z m1283 -43 c-3 -7 -10
-13 -15 -13 -6 0 -6 6 1 14 9 11 9 15 0 18 -8 3 -9 9 -4 18 7 11 10 10 15 -6
4 -10 5 -25 3 -31z m179 23 c7 4 8 2 4 -5 -10 -15 -26 -4 -25 17 1 15 2 15 6
-1 2 -9 9 -14 15 -11z m1118 14 c0 20 14 2 15 -19 1 -16 -1 -17 -17 -8 -9 6
-20 18 -23 26 -4 11 -3 12 10 1 12 -10 15 -10 15 0z m-2755 -20 c-19 -21 -7
-28 13 -8 6 6 14 10 16 7 3 -2 -6 -14 -20 -26 -18 -16 -24 -18 -24 -7 0 12 -4
12 -27 -2 -19 -11 -15 -5 12 19 44 40 58 48 30 17z m77 12 c-6 -5 -19 -17 -27
-28 -15 -19 -15 -19 -8 1 7 21 22 35 38 35 6 0 4 -4 -3 -8z m181 -9 c-3 -10
-9 -22 -12 -28 -4 -5 -6 -17 -5 -25 1 -8 2 -20 3 -27 0 -6 7 -10 14 -9 19 3
38 17 33 25 -3 4 8 7 24 7 21 0 27 -3 20 -11 -5 -7 -6 -16 -2 -20 4 -5 1 -5
-6 -1 -7 4 -10 12 -7 17 12 18 -8 9 -26 -13 -11 -11 -16 -24 -13 -27 4 -3 9 0
11 7 3 6 9 12 14 12 6 0 7 -4 4 -10 -4 -6 6 -10 24 -10 23 0 29 4 25 15 -4 10
0 15 14 15 11 0 22 6 25 13 3 9 11 9 35 1 28 -11 32 -10 38 10 4 11 16 30 27
41 19 17 20 17 14 1 -10 -26 3 -68 19 -62 18 7 26 -26 14 -59 -17 -43 -43 -71
-65 -67 -42 7 -46 11 -36 30 7 14 6 19 -4 19 -7 0 -11 -6 -8 -14 3 -7 0 -13
-5 -13 -11 0 -25 -33 -26 -59 -1 -8 -8 -16 -16 -19 -12 -3 -12 -2 -3 8 6 7 9
19 6 27 -3 8 0 18 6 23 8 5 -5 20 -41 46 -58 42 -76 47 -96 24 -11 -13 -11
-12 -3 7 17 34 13 36 -19 13 -16 -12 -30 -17 -30 -12 0 6 7 12 15 16 10 3 14
16 11 37 -1 18 3 45 11 60 16 32 26 39 16 12z m831 9 c3 -5 -1 -9 -9 -9 -8 0
-12 4 -9 9 3 4 7 8 9 8 2 0 6 -4 9 -8z m210 -18 c-2 -26 -34 -69 -34 -47 0 6
7 16 15 23 8 7 12 16 9 21 -5 8 3 29 10 29 2 0 2 -12 0 -26z m196 22 c0 -3 -4
-8 -10 -11 -5 -3 -10 -1 -10 4 0 6 5 11 10 11 6 0 10 -2 10 -4z m-152 -31 c0
-23 -2 -24 -13 -8 -13 18 -11 33 4 33 5 0 9 -11 9 -25z m222 21 c0 -2 -7 -7
-16 -10 -8 -3 -12 -2 -9 4 6 10 25 14 25 6z m1234 -12 c3 -8 2 -12 -4 -9 -6 3
-10 10 -10 16 0 14 7 11 14 -7z m-2257 -14 c-1 -22 -17 -28 -17 -7 0 12 9 27
16 27 2 0 2 -9 1 -20z m628 -2 c-4 -13 -12 -28 -19 -33 -6 -6 -8 -6 -3 -1 4 6
7 20 7 33 0 13 5 23 11 23 6 0 8 -9 4 -22z m56 -5 c-8 -15 -10 -15 -11 -2 0
17 10 32 18 25 2 -3 -1 -13 -7 -23z m382 14 c3 -8 1 -20 -5 -28 -8 -11 -9 -11
-5 2 3 9 0 22 -6 28 -8 8 -8 11 0 11 6 0 13 -6 16 -13z m73 -15 c-18 -16 -18
-16 -6 6 6 13 14 21 18 18 3 -4 -2 -14 -12 -24z m-1408 -12 c-1 -16 -4 -30 -8
-30 -6 0 -7 21 -1 53 3 19 10 3 9 -23z m792 20 c0 -5 -5 -10 -11 -10 -5 0 -7
5 -4 10 3 6 8 10 11 10 2 0 4 -4 4 -10z m40 -5 c0 -8 -4 -15 -10 -15 -5 0 -10
7 -10 15 0 8 5 15 10 15 6 0 10 -7 10 -15z m390 12 c0 -2 -10 -12 -22 -23
l-23 -19 19 23 c18 21 26 27 26 19z m1261 -14 c13 -16 12 -17 -3 -4 -17 13
-22 21 -14 21 2 0 10 -8 17 -17z m-2376 -3 c-3 -5 -11 -10 -16 -10 -6 0 -7 5
-4 10 3 6 11 10 16 10 6 0 7 -4 4 -10z m235 6 c0 -3 -11 -17 -25 -32 -14 -15
-25 -23 -25 -19 0 5 10 19 22 32 21 23 28 27 28 19z m756 -24 c-18 -16 -18
-16 -6 6 6 13 14 21 18 18 3 -4 -2 -14 -12 -24z m-1461 8 c-3 -5 0 -10 7 -10
10 0 10 -2 0 -9 -8 -4 -13 -11 -13 -15 2 -18 -13 -66 -20 -66 -5 0 -4 12 2 28
7 15 13 38 14 52 4 30 4 30 11 30 3 0 2 -4 -1 -10z m107 -12 c-7 -7 -12 -8
-12 -2 0 14 12 26 19 19 2 -3 -1 -11 -7 -17z m68 7 c-6 -8 -8 -20 -4 -26 4 -8
3 -9 -4 -5 -16 10 -15 33 1 39 19 8 20 8 7 -8z m1105 -6 c-3 -8 -15 -20 -27
-28 -20 -12 -20 -11 3 17 25 31 33 34 24 11z m123 1 c-7 -11 -17 -20 -22 -20
-5 0 -1 9 9 20 10 11 20 20 22 20 2 0 -2 -9 -9 -20z m1481 -2 c-11 -21 -15
-22 -25 -6 -5 7 -3 8 6 3 9 -6 12 -4 8 7 -4 8 0 15 7 15 10 0 11 -5 4 -19z
m-2755 -13 c-9 -14 -19 -23 -22 -20 -5 4 26 45 35 45 2 0 -4 -11 -13 -25z
m1396 15 c0 -5 -5 -10 -11 -10 -5 0 -7 5 -4 10 3 6 8 10 11 10 2 0 4 -4 4 -10z
m100 0 c0 -5 -5 -10 -11 -10 -5 0 -7 5 -4 10 3 6 8 10 11 10 2 0 4 -4 4 -10z
m-1560 -4 c0 -3 -4 -8 -10 -11 -5 -3 -10 -1 -10 4 0 6 5 11 10 11 6 0 10 -2
10 -4z m1351 -23 c-12 -20 -14 -14 -5 12 4 9 9 14 11 11 3 -2 0 -13 -6 -23z
m250 4 c-10 -9 -11 -8 -5 6 3 10 9 15 12 12 3 -3 0 -11 -7 -18z m89 19 c0 -2
-8 -10 -17 -17 -16 -13 -17 -12 -4 4 13 16 21 21 21 13z m-846 -32 c-5 -19 -4
-25 5 -20 6 4 11 3 11 -3 0 -15 -18 -23 -22 -9 -2 6 -12 -6 -22 -27 -10 -21
-28 -48 -39 -59 -19 -20 -19 -19 1 15 12 20 20 38 17 41 -3 3 4 13 15 23 11
10 20 25 20 34 0 12 -6 9 -20 -9 -16 -20 -20 -21 -20 -8 0 18 33 42 44 31 3
-3 6 -1 6 5 0 7 2 12 5 12 3 0 2 -12 -1 -26z m393 11 c0 -8 -4 -15 -9 -15 -10
0 -11 14 -1 23 9 10 10 9 10 -8z m189 3 c4 -7 3 -8 -4 -4 -7 4 -12 2 -12 -5 0
-7 -3 -10 -6 -6 -6 5 3 27 11 27 2 0 7 -5 11 -12z m1124 0 c0 -4 -4 -8 -9 -8
-6 0 -12 4 -15 8 -3 5 1 9 9 9 8 0 15 -4 15 -9z m-2452 -21 c15 6 15 5 3 -11
-11 -13 -16 -14 -22 -4 -5 7 -9 10 -9 6 0 -5 1 -10 3 -12 5 -8 -36 -45 -44
-40 -5 3 -9 -1 -9 -9 0 -17 -34 -49 -43 -40 -12 11 -7 25 7 20 8 -3 19 8 30
29 19 42 20 56 2 31 -13 -17 -14 -17 -20 0 -4 10 -4 14 0 10 4 -4 13 1 19 10
11 15 13 15 19 -5 4 -12 11 -22 16 -22 5 0 7 7 4 15 -4 8 -1 15 5 15 6 0 12 8
12 18 1 15 2 16 6 0 3 -11 10 -15 21 -11z m41 1 c-9 -16 -14 -19 -17 -9 -2 7
2 17 9 22 20 13 21 11 8 -13z m1141 12 c0 -5 -2 -10 -4 -10 -3 0 -8 5 -11 10
-3 6 -1 10 4 10 6 0 11 -4 11 -10z m94 -15 c-9 -14 -18 -25 -21 -25 -5 0 5 18
20 38 17 22 18 13 1 -13z m1421 15 c4 -6 11 -8 16 -5 17 11 9 -2 -13 -21 -19
-15 -20 -16 -9 -1 12 15 9 21 -11 18 -5 0 -8 4 -8 9 0 13 17 13 25 0z m-2824
-23 c-10 -9 -11 -8 -5 6 3 10 9 15 12 12 3 -3 0 -11 -7 -18z m660 -2 c5 4 9 1
9 -5 0 -7 -7 -10 -15 -6 -8 3 -15 0 -15 -6 0 -6 -3 -9 -6 -5 -3 3 -2 16 2 29
6 19 9 20 12 5 2 -9 8 -15 13 -12z m579 15 c0 -5 -5 -10 -11 -10 -5 0 -7 5 -4
10 3 6 8 10 11 10 2 0 4 -4 4 -10z m-463 -15 c0 -8 -4 -12 -8 -9 -4 2 -10 -5
-14 -16 -3 -11 -12 -20 -20 -20 -13 0 -30 -28 -26 -43 1 -5 -3 -6 -8 -3 -5 4
-12 0 -14 -6 -4 -10 -6 -9 -6 1 -1 7 15 28 34 47 19 18 35 37 35 42 0 6 6 13
13 15 6 3 12 6 13 6 0 1 1 -6 1 -14z m516 0 c4 -8 3 -16 -1 -19 -4 -3 -9 4 -9
15 -2 23 3 25 10 4z m37 5 c0 -5 -5 -10 -11 -10 -5 0 -7 5 -4 10 3 6 8 10 11
10 2 0 4 -4 4 -10z m-638 -22 c-7 -7 -12 -8 -12 -2 0 14 12 26 19 19 2 -3 -1
-11 -7 -17z m40 0 c-7 -7 -12 -8 -12 -2 0 14 12 26 19 19 2 -3 -1 -11 -7 -17z
m299 8 c5 3 9 0 9 -6 0 -7 -7 -9 -15 -6 -9 3 -18 -1 -22 -10 -3 -8 -12 -13
-20 -10 -9 4 -18 -5 -25 -25 -7 -19 -15 -28 -24 -25 -8 3 -14 -1 -14 -9 0 -15
-11 -19 -39 -16 -8 2 -10 -3 -5 -11 4 -7 4 -10 -1 -6 -4 4 -14 3 -22 -4 -7 -6
-16 -9 -19 -6 -3 3 15 18 40 34 24 15 51 41 61 56 9 16 21 26 26 23 5 -4 9 0
9 7 0 9 3 9 10 -2 8 -13 10 -13 10 2 0 17 23 31 28 16 2 -4 8 -6 13 -2z m224
-10 c0 -13 -2 -27 -5 -30 -5 -4 -6 43 -1 52 4 8 7 -1 6 -22z m345 20 c0 -2 -8
-10 -17 -17 -16 -13 -17 -12 -4 4 13 16 21 21 21 13z m-248 -38 c-8 -8 -9 -4
-5 13 4 13 8 18 11 10 2 -7 -1 -18 -6 -23z m121 17 c-3 -9 -8 -14 -10 -11 -3
3 -2 9 2 15 9 16 15 13 8 -4z m35 -5 c-7 -10 -14 -18 -15 -16 -6 6 9 36 18 36
5 0 4 -9 -3 -20z m-1377 -17 c-8 -15 -10 -15 -11 -2 0 17 10 32 18 25 2 -3 -1
-13 -7 -23z m2439 7 c-8 -15 -8 -20 1 -20 7 0 10 -3 6 -6 -3 -3 -10 -3 -16 1
-11 6 2 45 15 45 2 0 0 -9 -6 -20z m-2553 4 c-3 -3 -12 -4 -19 -1 -8 3 -5 6 6
6 11 1 17 -2 13 -5z m269 -19 c-8 -31 0 -32 25 -2 14 16 17 17 13 5 -3 -10 -1
-18 5 -18 6 0 11 9 11 20 0 11 4 20 10 20 11 0 4 -22 -23 -67 -20 -35 -35 -46
-17 -14 12 23 14 48 3 37 -5 -4 -14 -22 -20 -39 l-13 -32 3 30 c1 19 -3 29
-11 28 -15 -4 -15 0 0 32 14 32 22 32 14 0z m384 21 c0 -3 -4 -8 -10 -11 -5
-3 -10 -1 -10 4 0 6 5 11 10 11 6 0 10 -2 10 -4z m1540 0 c0 -3 -4 -8 -10 -11
-5 -3 -10 -1 -10 4 0 6 5 11 10 11 6 0 10 -2 10 -4z m-2103 -20 c-3 -8 -3 -17
1 -19 4 -2 1 -2 -5 -1 -8 2 -13 -7 -13 -23 0 -26 1 -26 16 -7 14 18 15 18 4
-4 -7 -13 -14 -21 -17 -18 -3 2 -16 -7 -29 -22 -13 -15 -24 -22 -24 -16 0 6 9
19 19 28 11 10 19 26 18 36 -1 21 -17 16 -17 -6 0 -8 -2 -14 -4 -14 -2 0 -12
-3 -22 -7 -14 -5 -13 -2 4 15 12 12 22 27 22 32 0 6 6 10 14 10 8 0 16 7 20
15 3 8 8 15 12 15 3 0 4 -6 1 -14z m145 -8 c-7 -7 -12 -8 -12 -2 0 14 12 26
19 19 2 -3 -1 -11 -7 -17z m624 10 c4 -7 3 -8 -4 -4 -7 4 -12 2 -12 -5 0 -7
-3 -10 -6 -6 -6 5 3 27 11 27 2 0 7 -5 11 -12z m146 -5 c-6 -3 -9 -10 -6 -15
4 -7 2 -8 -5 -4 -9 6 -9 11 0 22 6 8 15 12 18 8 3 -4 0 -9 -7 -11z m278 2 c0
-8 -4 -15 -10 -15 -5 0 -7 7 -4 15 4 8 8 15 10 15 2 0 4 -7 4 -15z m686 -30
c-11 -19 -22 -32 -27 -30 -4 3 -12 -3 -18 -12 -6 -10 -11 -13 -11 -7 0 5 14
23 30 39 17 16 30 35 30 44 0 8 3 11 7 7 4 -4 -1 -22 -11 -41z m169 15 c-16
-16 -31 -27 -34 -24 -5 5 47 54 57 54 3 0 -7 -13 -23 -30z m-2209 -7 c-2 -16
-4 -32 -5 -36 0 -5 -6 -5 -11 -2 -8 5 -8 11 -1 19 6 7 8 16 5 19 -6 5 3 27 11
27 2 0 2 -12 1 -27z m1104 12 c0 -8 -4 -15 -10 -15 -5 0 -7 7 -4 15 4 8 8 15
10 15 2 0 4 -7 4 -15z m276 6 c-4 -5 -1 -11 6 -13 8 -3 6 -6 -4 -10 -11 -5
-15 -2 -13 10 5 23 4 22 11 22 3 0 3 -4 0 -9z m-582 -16 c-4 -8 -11 -15 -16
-15 -6 0 -5 6 2 15 7 8 14 15 16 15 2 0 1 -7 -2 -15z m519 0 c-3 -9 -8 -14
-10 -11 -3 3 -2 9 2 15 9 16 15 13 8 -4z m-1275 -20 c-3 -3 -9 2 -12 12 -6 14
-5 15 5 6 7 -7 10 -15 7 -18z m418 16 c8 6 15 8 15 3 6 -41 5 -61 -3 -71 -13
-16 -28 -7 -27 15 0 14 2 13 9 -3 10 -23 11 -21 16 18 1 15 -1 27 -7 27 -5 0
-9 -5 -9 -10 0 -6 -6 -5 -14 2 -8 7 -11 17 -8 23 3 5 7 4 10 -3 3 -10 7 -10
18 -1z m250 0 c10 8 14 8 14 0 0 -6 -5 -11 -10 -11 -6 0 -8 -12 -5 -27 l5 -28
-11 28 c-6 15 -15 25 -20 21 -5 -3 -7 -10 -4 -15 4 -5 2 -9 -4 -9 -5 0 -13 -9
-16 -21 -4 -13 -12 -18 -21 -15 -8 3 -13 2 -10 -2 2 -4 -2 -20 -10 -37 -10
-21 -12 -23 -8 -6 3 13 7 31 8 39 2 9 8 18 14 20 6 2 21 20 34 39 12 20 24 31
26 24 3 -9 7 -9 18 0z m455 -18 c-8 -15 -10 -15 -11 -2 0 17 10 32 18 25 2 -3
-1 -13 -7 -23z m-901 -41 c-18 -26 -35 -49 -37 -51 -2 -2 -5 -2 -8 1 -3 3 4
17 16 31 11 15 18 27 15 27 -3 0 5 10 17 23 35 36 33 21 -3 -31z m143 43 c-3
-9 -8 -14 -10 -11 -3 3 -2 9 2 15 9 16 15 13 8 -4z m1747 -5 c-6 -11 -13 -20
-16 -20 -2 0 0 9 6 20 6 11 13 20 16 20 2 0 0 -9 -6 -20z m866 3 c-3 -10 1
-31 9 -48 9 -20 14 -24 14 -12 3 61 60 -62 66 -143 2 -25 1 -36 -2 -25 -3 11
-9 25 -14 30 -27 34 -89 179 -84 196 8 24 18 25 11 2z m-2702 -27 c-3 -9 -10
-13 -15 -10 -5 3 -9 1 -9 -3 0 -5 -7 -18 -15 -29 -13 -15 -13 -12 1 16 22 46
54 68 38 26z m106 -16 l-8 -35 -1 31 c-1 17 2 34 6 37 11 12 12 3 3 -33z m636
14 c-3 -15 -8 -29 -11 -32 -3 -3 -3 5 -1 19 2 13 5 27 5 32 1 4 3 7 6 7 3 0 3
-12 1 -26z m54 22 c0 -2 -8 -10 -17 -17 -16 -13 -17 -12 -4 4 13 16 21 21 21
13z m1514 -20 c-6 -15 -24 -23 -24 -11 0 8 24 34 28 30 1 -1 0 -10 -4 -19z
m363 -8 c-3 -7 -5 -2 -5 12 0 14 2 19 5 13 2 -7 2 -19 0 -25z m-2797 15 c0 -5
-4 -15 -10 -23 -6 -9 -5 -17 3 -22 9 -6 9 -8 -1 -8 -7 0 -10 -5 -6 -12 4 -6 3
-8 -3 -5 -6 4 -9 17 -8 29 1 13 3 29 4 36 1 13 21 17 21 5z m349 -7 c9 -11 8
-18 -4 -30 -14 -13 -14 -16 -2 -16 8 0 18 7 21 16 10 25 18 10 11 -19 -4 -14
-13 -28 -20 -31 -10 -3 -12 1 -9 12 4 11 -2 8 -16 -8 -19 -22 -20 -22 -11 -3
16 31 13 41 -4 19 -8 -11 -18 -16 -22 -13 -4 4 9 21 28 37 19 16 28 29 22 30
-7 0 -13 5 -13 10 0 14 5 13 19 -4z m-669 -30 c0 -7 -9 -21 -19 -30 -19 -18
-19 -17 -9 18 10 33 28 41 28 12z m120 -11 c0 -5 -5 -3 -10 5 -5 8 -10 20 -10
25 0 6 5 3 10 -5 5 -8 10 -19 10 -25z m400 22 c0 -15 -29 -57 -30 -42 0 6 3
20 6 33 7 24 24 31 24 9z m294 -3 c3 -8 2 -12 -4 -9 -6 3 -10 1 -10 -6 0 -7
-2 -10 -5 -7 -5 5 4 38 10 38 2 0 6 -7 9 -16z m46 -14 c-6 -12 -14 -19 -17
-17 -2 3 1 15 7 27 6 12 14 19 17 17 2 -3 -1 -15 -7 -27z m70 20 c0 -5 -5 -10
-11 -10 -5 0 -7 5 -4 10 3 6 8 10 11 10 2 0 4 -4 4 -10z m310 0 c0 -5 -5 -10
-11 -10 -7 0 -18 -8 -26 -17 -13 -16 -13 -16 -4 4 9 18 19 26 39 32 1 1 2 -3
2 -9z m730 1 c0 -6 -4 -12 -8 -15 -5 -3 -9 1 -9 9 0 8 4 15 9 15 4 0 8 -4 8
-9z m-1760 -11 c0 -5 -2 -10 -4 -10 -3 0 -8 5 -11 10 -3 6 -1 10 4 10 6 0 11
-4 11 -10z m671 -13 c-10 -9 -11 -8 -5 6 3 10 9 15 12 12 3 -3 0 -11 -7 -18z
m1174 14 c3 -5 2 -12 -3 -15 -5 -3 -9 1 -9 9 0 17 3 19 12 6z m-1875 -26 c-7
-8 -9 -19 -5 -25 11 -17 0 -11 -19 12 -15 18 -16 20 -2 15 10 -4 16 -1 16 9 0
8 5 12 10 9 8 -5 7 -11 0 -20z m90 -12 c-11 -17 -11 -17 -6 0 3 10 6 24 7 30
0 9 2 9 5 0 3 -7 0 -20 -6 -30z m180 28 c0 -11 -52 -63 -58 -57 -2 3 9 18 24
35 32 33 34 35 34 22z m16 -20 c-10 -10 -16 -25 -15 -33 3 -25 -1 -38 -12 -38
-8 0 -8 4 0 14 8 9 8 15 1 18 -6 2 0 17 12 35 13 17 25 30 27 27 2 -2 -4 -12
-13 -23z m2271 -3 c-3 -7 -5 -2 -5 12 0 14 2 19 5 13 2 -7 2 -19 0 -25z m-889
-3 c-3 -3 -9 2 -12 12 -6 14 -5 15 5 6 7 -7 10 -15 7 -18z m145 10 c-3 -9 -8
-14 -10 -11 -3 3 -2 9 2 15 9 16 15 13 8 -4z m-1765 -14 c24 -20 29 -46 10
-57 -7 -4 -8 -3 -4 4 10 16 -11 52 -30 52 -8 0 -12 5 -9 10 8 13 8 13 33 -9z
m293 -4 c-10 -9 -11 -8 -5 6 3 10 9 15 12 12 3 -3 0 -11 -7 -18z m72 12 c-6
-6 -9 -17 -7 -24 3 -7 1 -15 -3 -18 -5 -3 -8 6 -7 21 2 33 1 32 16 32 9 0 9
-3 1 -11z m187 1 c0 -5 -5 -10 -11 -10 -5 0 -7 5 -4 10 3 6 8 10 11 10 2 0 4
-4 4 -10z m304 -1 c-3 -5 -14 -14 -26 -20 -15 -8 -19 -8 -14 0 4 6 3 11 -3 11
-5 0 -13 -5 -16 -10 -4 -6 -11 -8 -16 -5 -5 4 -9 2 -9 -3 0 -5 -9 -12 -20 -15
-30 -8 -14 11 28 32 37 19 86 25 76 10z m140 -4 c-4 -8 -11 -15 -16 -15 -6 0
-5 6 2 15 7 8 14 15 16 15 2 0 1 -7 -2 -15z m-1294 -15 c-6 -11 -13 -20 -16
-20 -2 0 0 9 6 20 6 11 13 20 16 20 2 0 0 -9 -6 -20z m391 -3 c-10 -9 -11 -8
-5 6 3 10 9 15 12 12 3 -3 0 -11 -7 -18z m56 1 c-3 -8 -6 -5 -6 6 -1 11 2 17
5 13 3 -3 4 -12 1 -19z m161 -8 c-12 -16 -26 -30 -32 -30 -5 0 3 14 19 30 16
17 30 30 32 30 2 0 -6 -13 -19 -30z m1892 19 c0 -23 -43 -70 -83 -91 l-42 -22
30 -6 c17 -3 29 -12 27 -19 -1 -7 2 -10 8 -6 6 3 7 11 4 17 -8 12 51 -18 79
-41 41 -33 -3 -41 -87 -16 -65 20 -74 19 -45 -4 13 -10 32 -33 42 -49 l17 -31
-31 9 c-17 5 -38 15 -47 22 -14 11 -15 9 -9 -19 4 -18 3 -33 -1 -33 -20 0
-102 61 -102 76 0 21 -23 13 -26 -10 -1 -10 -6 -21 -10 -24 -4 -4 -4 1 -1 11
7 18 -3 23 -18 8 -17 -15 -78 -33 -140 -40 -33 -5 -68 -12 -78 -16 -12 -5 -8
2 10 21 69 72 81 78 146 81 67 3 113 27 110 58 -1 13 5 16 28 13 36 -6 40 0
41 55 1 23 3 34 6 24 3 -15 6 -16 18 -6 12 10 121 46 147 48 4 1 7 -4 7 -10z
m-2320 -9 c0 -5 -4 -10 -10 -10 -5 0 -10 5 -10 10 0 6 5 10 10 10 6 0 10 -4
10 -10z m185 -11 c-10 -15 -25 -10 -19 6 4 8 10 12 15 9 5 -3 7 -10 4 -15z
m1510 11 c-4 -6 -25 -20 -48 -31 -48 -24 -39 -11 13 19 42 24 43 25 35 12z
m-1776 -291 c17 -14 18 -23 10 -90 -4 -41 -8 -80 -9 -87 0 -9 -5 -9 -17 -3
-10 6 -35 13 -55 16 -21 3 -39 9 -42 13 -2 4 14 75 35 157 42 164 46 192 26
219 -12 16 -11 22 7 40 l21 21 3 -135 c2 -118 4 -137 21 -151z m471 284 c0 -5
-9 -19 -20 -33 -16 -20 -19 -21 -14 -5 11 31 34 58 34 38z m345 -8 c16 -13
-31 -56 -52 -48 -9 4 -14 2 -10 -3 3 -6 -4 -16 -16 -24 -20 -12 -21 -12 -8 4
12 14 12 16 -3 10 -9 -3 -16 -10 -16 -14 0 -4 -12 -15 -26 -25 -26 -16 -26
-16 -19 7 4 12 12 28 18 33 7 7 8 4 4 -7 -4 -10 -2 -18 3 -18 5 0 12 9 15 20
3 11 11 21 16 21 19 3 24 5 37 12 7 5 12 4 12 -3 0 -6 4 -9 9 -5 5 3 8 17 5
30 -5 26 9 30 31 10z m1893 -16 c-6 -16 -12 -28 -14 -26 -5 5 13 57 20 57 3 0
0 -14 -6 -31z m-2125 10 c-9 -9 -6 -17 13 -32 14 -11 23 -26 20 -34 -3 -8 -1
-11 4 -8 12 8 12 3 0 -29 -5 -14 -15 -26 -22 -26 -10 0 -10 2 -1 8 8 5 2 13
-18 24 -16 9 -29 13 -29 7 0 -6 -5 -7 -11 -3 -8 5 -8 8 0 14 7 3 9 14 5 24 -6
15 29 66 45 66 3 0 0 -5 -6 -11z m-511 -26 c-3 -16 -7 -22 -10 -15 -4 13 4 42
11 42 2 0 2 -12 -1 -27z m218 17 c0 -5 -5 -10 -11 -10 -5 0 -7 5 -4 10 3 6 8
10 11 10 2 0 4 -4 4 -10z m50 -6 c0 -8 -4 -13 -9 -10 -5 4 -11 0 -14 -6 -2 -7
-8 -10 -12 -5 -5 4 0 14 11 22 24 18 24 18 24 -1z m293 1 c-3 -9 -8 -14 -10
-11 -3 3 -2 9 2 15 9 16 15 13 8 -4z m-473 -10 c0 -8 -4 -15 -10 -15 -5 0 -7
7 -4 15 4 8 8 15 10 15 2 0 4 -7 4 -15z m30 5 c0 -5 -5 -10 -11 -10 -5 0 -7 5
-4 10 3 6 8 10 11 10 2 0 4 -4 4 -10z m61 -8 c-6 -11 -12 -31 -15 -47 -6 -35
-16 -45 -12 -14 4 41 18 79 27 79 6 0 6 -8 0 -18z m1226 12 c-3 -3 -12 -4 -19
-1 -8 3 -5 6 6 6 11 1 17 -2 13 -5z m-1617 -23 c0 -28 21 -37 36 -17 8 11 14
13 19 6 3 -5 10 -8 14 -6 4 3 8 -13 8 -35 1 -21 -2 -39 -8 -39 -5 0 -9 -16 -9
-35 0 -35 -20 -126 -30 -135 -3 -3 -5 -9 -6 -15 0 -5 -4 -27 -8 -47 -7 -31
-13 -38 -32 -38 -14 0 -24 6 -24 15 0 9 6 12 17 8 12 -5 14 -3 8 7 -5 8 -4 11
3 6 17 -10 23 9 9 29 -13 16 -14 16 -30 0 -9 -9 -17 -13 -17 -8 0 4 -3 19 -6
33 -4 19 -3 22 5 10 17 -24 22 -6 11 46 -5 27 -15 73 -21 102 -5 29 -7 63 -3
75 15 49 64 78 64 38z m510 12 c-1 -10 -50 -46 -50 -37 0 9 33 43 43 43 4 1 7
-2 7 -6z m1174 -8 c-4 -8 -8 -15 -10 -15 -2 0 -4 7 -4 15 0 8 4 15 10 15 5 0
7 -7 4 -15z m121 5 c3 -5 1 -10 -4 -10 -6 0 -11 5 -11 10 0 6 2 10 4 10 3 0 8
-4 11 -10z m155 -1 c0 -18 -57 -69 -77 -69 -11 1 -6 6 14 15 18 8 38 25 45 40
12 27 18 32 18 14z m-1548 -21 c-7 -7 -12 -8 -12 -2 0 14 12 26 19 19 2 -3 -1
-11 -7 -17z m956 15 c-10 -2 -18 -9 -18 -15 0 -6 -3 -9 -6 -5 -10 10 6 27 24
26 15 -1 15 -2 0 -6z m42 0 c-1 -13 -24 -38 -38 -41 -9 -2 -7 6 5 22 18 25 33
33 33 19z m-1085 -13 c-3 -5 -8 -20 -10 -31 -3 -12 -7 -24 -10 -27 -3 -3 -3 5
-1 19 2 13 5 30 5 37 1 6 6 12 12 12 5 0 7 -4 4 -10z m24 -21 c-6 -12 -13 -18
-16 -15 -3 3 -1 12 5 19 7 8 8 18 4 22 -4 5 -1 5 6 1 9 -5 9 -12 1 -27z m195
-1 c-10 -18 -19 -28 -21 -21 -3 10 25 53 34 53 2 0 -4 -15 -13 -32z m636 28
c0 -3 -4 -8 -10 -11 -5 -3 -10 -1 -10 4 0 6 5 11 10 11 6 0 10 -2 10 -4z m25
-6 c3 -5 1 -10 -4 -10 -6 0 -11 5 -11 10 0 6 2 10 4 10 3 0 8 -4 11 -10z m95
0 c0 -5 -4 -10 -10 -10 -5 0 -10 5 -10 10 0 6 5 10 10 10 6 0 10 -4 10 -10z
m-861 -22 c-17 -33 -20 -35 -15 -7 2 13 5 25 5 27 1 1 6 2 11 2 7 0 7 -8 -1
-22z m226 12 c-3 -5 -10 -10 -16 -10 -5 0 -9 5 -9 10 0 6 7 10 16 10 8 0 12
-4 9 -10z m653 -15 c-6 -14 -13 -24 -14 -22 -6 6 9 47 17 47 5 0 3 -11 -3 -25z
m195 10 c-3 -9 -8 -14 -10 -11 -3 3 -2 9 2 15 9 16 15 13 8 -4z m282 6 c3 -5
2 -12 -3 -15 -5 -3 -9 1 -9 9 0 17 3 19 12 6z m1505 -49 c0 -5 -6 -15 -14 -21
-12 -10 -13 -8 -9 8 3 12 1 21 -3 21 -5 0 -10 11 -10 25 l-2 25 19 -24 c10
-13 19 -29 19 -34z m-3099 25 c-10 -9 -11 -8 -5 6 3 10 9 15 12 12 3 -3 0 -11
-7 -18z m89 13 c0 -5 -5 -10 -11 -10 -5 0 -7 5 -4 10 3 6 8 10 11 10 2 0 4 -4
4 -10z m220 6 c0 -3 -4 -8 -10 -11 -5 -3 -10 -1 -10 4 0 6 5 11 10 11 6 0 10
-2 10 -4z m63 -16 c-3 -12 -8 -19 -11 -16 -5 6 5 36 12 36 2 0 2 -9 -1 -20z
m463 0 c0 -11 -6 -20 -12 -20 -7 0 -10 8 -7 20 3 11 8 20 12 20 4 0 7 -9 7
-20z m43 -1 c-14 -8 -29 -3 -29 11 0 4 9 6 21 3 15 -4 17 -8 8 -14z m486 12
c-3 -6 -2 -29 1 -53 4 -24 9 -37 12 -30 2 6 9 9 14 6 6 -4 8 -2 4 4 -9 14 15
63 28 59 6 -2 11 -14 10 -27 -1 -20 3 -22 33 -17 34 6 37 2 33 -37 -1 -16 3
-18 33 -13 26 4 37 1 41 -9 3 -8 2 -13 -2 -10 -5 3 -28 -8 -53 -25 l-44 -29
33 0 c17 0 32 -4 32 -10 0 -5 -9 -10 -21 -10 -11 0 -18 -3 -16 -7 5 -9 -59
-17 -113 -14 -19 0 -55 1 -80 1 -25 0 -40 3 -33 8 8 5 9 21 4 49 -9 49 10 100
53 146 26 26 43 36 31 18z m-962 -26 c-3 -8 -10 -15 -15 -15 -7 0 -6 5 1 13 6
8 7 18 3 22 -4 5 -2 5 5 1 7 -4 10 -13 6 -21z m402 15 c-3 -5 -10 -10 -16 -10
-5 0 -9 5 -9 10 0 6 7 10 16 10 8 0 12 -4 9 -10z m230 -38 c-6 -15 -8 -15 -15
3 -10 28 0 53 12 30 5 -9 7 -24 3 -33z m35 44 c0 -3 -4 -8 -10 -11 -5 -3 -10
-1 -10 4 0 6 5 11 10 11 6 0 10 -2 10 -4z m-817 -30 c-10 -13 -19 -23 -21 -21
-5 5 22 45 31 45 4 0 0 -11 -10 -24z m183 9 c-8 -8 -18 -15 -22 -15 -3 0 -1 7
6 15 7 8 17 15 22 15 5 0 3 -7 -6 -15z m324 -5 c-6 -11 -15 -18 -20 -15 -5 3
-21 -2 -35 -11 -15 -10 -25 -12 -25 -5 0 6 6 11 13 11 6 0 23 9 37 20 32 25
43 25 30 0z m145 1 c-3 -6 -11 -11 -17 -11 -6 0 -6 6 2 15 14 17 26 13 15 -4z
m1055 15 c0 -11 -19 -15 -25 -6 -3 5 1 10 9 10 9 0 16 -2 16 -4z m16 -24 c-17
-16 -18 -16 -5 5 7 12 15 20 18 17 3 -2 -3 -12 -13 -22z m666 3 c-6 -36 -19
-40 -14 -4 2 16 8 29 12 29 4 0 5 -11 2 -25z m-1695 7 c9 -6 7 -11 -7 -20 -12
-7 -20 -8 -20 -2 0 5 6 10 13 10 8 0 7 4 -3 10 -8 5 -10 10 -5 10 6 0 15 -4
22 -8z m263 4 c0 -3 -4 -8 -10 -11 -5 -3 -10 -1 -10 4 0 6 5 11 10 11 6 0 10
-2 10 -4z m693 -14 c-10 -10 -20 -17 -22 -16 -6 5 20 34 30 34 5 0 1 -8 -8
-18z m-1771 -14 c-7 -7 -12 -8 -12 -2 0 14 12 26 19 19 2 -3 -1 -11 -7 -17z
m61 7 c-3 -9 -8 -14 -10 -11 -3 3 -2 9 2 15 9 16 15 13 8 -4z m111 -1 c5 -13
9 -14 21 -4 25 21 48 4 43 -33 l-4 -33 34 34 c37 36 48 36 39 0 -4 -13 -7 -27
-7 -33 -1 -5 -8 -17 -15 -25 -12 -13 -4 -15 70 -13 47 1 87 -1 89 -6 6 -10
-43 -35 -61 -32 -7 1 -13 -2 -13 -7 0 -5 -6 -9 -12 -10 -7 0 -24 -4 -37 -8
-19 -6 -23 -4 -19 7 7 17 -34 21 -49 5 -4 -5 -3 -6 4 -3 6 4 18 2 25 -5 8 -7
23 -18 33 -24 11 -7 19 -19 19 -27 -1 -9 3 -15 9 -14 11 2 39 -44 32 -52 -8
-7 -70 22 -97 47 -15 14 -30 39 -34 56 l-7 31 -33 -39 c-19 -22 -34 -36 -34
-32 0 4 -12 -6 -26 -24 -15 -17 -40 -38 -58 -46 l-31 -16 30 26 c17 14 33 25
37 26 3 0 15 14 26 31 10 17 29 36 42 42 13 7 25 22 27 35 2 13 -1 21 -6 17
-5 -3 -13 -1 -16 5 -4 6 -15 0 -27 -15 -24 -30 -42 -33 -33 -5 7 22 -9 50 -29
50 -6 0 -21 -15 -33 -33 -13 -17 -23 -26 -23 -20 0 7 5 15 10 18 6 4 8 11 4
16 -3 5 -9 7 -14 4 -5 -3 -11 -1 -14 4 -3 5 -15 7 -26 4 -12 -3 -29 2 -40 12
-10 9 -23 14 -28 11 -6 -3 -8 2 -5 14 10 39 101 35 173 -7 3 -2 11 17 18 42
12 46 34 59 46 29z m486 -9 c-7 -9 -15 -13 -18 -10 -3 2 1 11 8 20 7 9 15 13
18 10 3 -2 -1 -11 -8 -20z m80 21 c0 -2 -7 -7 -16 -10 -8 -3 -12 -2 -9 4 6 10
25 14 25 6z m2320 -6 c0 -5 -2 -10 -4 -10 -3 0 -8 5 -11 10 -3 6 -1 10 4 10 6
0 11 -4 11 -10z m60 -35 c5 -12 13 -72 19 -131 7 -82 7 -110 -2 -116 -22 -14
-33 -8 -50 28 -10 19 -22 32 -27 29 -6 -4 -7 1 -3 11 4 10 2 15 -3 11 -6 -3
-24 21 -41 53 -25 45 -31 66 -26 93 5 33 7 35 29 25 26 -12 54 3 54 29 0 21
39 -3 50 -32z m-3030 25 c0 -5 -5 -10 -11 -10 -5 0 -7 5 -4 10 3 6 8 10 11 10
2 0 4 -4 4 -10z m670 -4 c0 -2 -7 -7 -16 -10 -8 -3 -12 -2 -9 4 6 10 25 14 25
6z m-890 -46 c-5 -22 -8 -27 -9 -13 -1 21 9 56 14 51 2 -2 0 -19 -5 -38z m626
15 c-11 -8 -25 -15 -30 -15 -6 1 0 7 14 15 32 19 40 18 16 0z m165 -8 c-10 -9
-11 -8 -5 6 3 10 9 15 12 12 3 -3 0 -11 -7 -18z m1019 19 c0 -2 -7 -9 -15 -16
-13 -11 -14 -10 -9 4 5 14 24 23 24 12z m-79 -29 c-10 -9 -11 -8 -5 6 3 10 9
15 12 12 3 -3 0 -11 -7 -18z m39 13 c0 -5 -5 -10 -11 -10 -5 0 -7 5 -4 10 3 6
8 10 11 10 2 0 4 -4 4 -10z m1517 -27 c-3 -10 -5 -4 -5 12 0 17 2 24 5 18 2
-7 2 -21 0 -30z m-2252 17 c3 -5 2 -10 -4 -10 -5 0 -13 5 -16 10 -3 6 -2 10 4
10 5 0 13 -4 16 -10z m-325 -4 c0 -3 -4 -8 -10 -11 -5 -3 -10 -1 -10 4 0 6 5
11 10 11 6 0 10 -2 10 -4z m485 -6 c3 -6 -1 -7 -9 -4 -18 7 -21 14 -7 14 6 0
13 -4 16 -10z m1445 -5 c-7 -9 -15 -13 -19 -10 -3 3 1 10 9 15 21 14 24 12 10
-5z m-2640 -35 c0 -5 -5 -10 -11 -10 -5 0 -7 5 -4 10 3 6 8 10 11 10 2 0 4 -4
4 -10z m684 -5 c27 -6 65 -44 87 -87 10 -21 19 -39 19 -42 0 -7 -52 9 -86 27
-68 35 -119 130 -61 113 12 -4 31 -9 41 -11z m2486 -140 c29 -55 61 -112 71
-126 18 -26 18 -26 -16 -59 -19 -19 -37 -48 -41 -66 -7 -36 14 -85 45 -107 26
-18 61 -100 61 -143 0 -19 4 -34 9 -34 8 0 37 -109 62 -235 21 -109 10 -262
-23 -302 -11 -14 -102 -16 -178 -5 l-45 7 3 88 c2 70 0 87 -10 82 -7 -4 -4 1
6 9 11 9 14 16 8 16 -7 0 -11 6 -9 13 1 6 -6 11 -15 11 -10 -1 -14 4 -11 13 3
8 12 12 19 9 8 -3 14 -1 14 5 0 5 -7 12 -15 15 -8 4 -15 10 -15 15 0 4 8 5 18
2 14 -6 15 -4 4 9 -10 13 -10 17 0 22 10 5 10 7 1 12 -7 3 -13 10 -13 15 0 6
6 7 13 3 9 -6 9 -5 0 7 -10 12 -10 18 -1 27 9 9 9 12 -1 12 -7 0 -9 4 -6 10 3
5 1 19 -6 31 -8 15 -8 19 0 15 6 -4 11 0 11 8 0 9 -5 16 -12 16 -8 0 -8 3 -3
9 11 11 7 113 -3 107 -4 -2 -5 25 -4 60 2 36 0 64 -6 64 -5 0 -8 13 -6 29 2
15 -1 52 -7 82 -6 30 -10 78 -10 106 0 29 -4 55 -8 57 -4 3 -6 22 -5 43 0 21
-3 40 -7 43 -4 3 -4 12 2 20 8 13 10 13 19 0 6 -11 12 -12 20 -4 13 13 27 89
14 82 -5 -4 -10 10 -12 30 l-2 37 18 -30 c10 -16 42 -75 72 -130z m-2312 137
c9 -6 5 -15 -15 -33 -20 -17 -23 -18 -10 -3 23 28 22 37 -5 29 -18 -5 -20 -4
-8 4 18 13 21 13 38 3z m137 -12 c-3 -5 -11 -10 -16 -10 -6 0 -7 5 -4 10 3 6
11 10 16 10 6 0 7 -4 4 -10z m-95 -4 c0 -3 -4 -8 -10 -11 -5 -3 -10 -1 -10 4
0 6 5 11 10 11 6 0 10 -2 10 -4z m60 0 c0 -2 -7 -6 -15 -10 -8 -3 -15 -1 -15
4 0 6 7 10 15 10 8 0 15 -2 15 -4z m2337 -33 c-3 -10 -5 -4 -5 12 0 17 2 24 5
18 2 -7 2 -21 0 -30z m-2243 8 c3 -4 -3 -16 -14 -26 -19 -17 -19 -17 -7 9 14
29 14 29 21 17z m199 -31 c-3 -11 -9 -20 -14 -20 -5 0 -6 7 -3 15 4 8 3 15 0
15 -11 0 -66 -30 -66 -36 0 -3 6 -2 13 2 6 4 -8 -10 -31 -32 -33 -29 -47 -52
-57 -89 -10 -38 -14 -43 -14 -22 -1 39 27 95 56 114 13 9 21 18 18 21 -3 3
-19 -8 -35 -23 -38 -37 -64 -120 -55 -175 7 -41 46 -109 71 -123 8 -5 12 -12
9 -18 -8 -12 -62 -12 -70 1 -5 8 -11 8 -20 0 -10 -8 -15 -8 -20 0 -5 8 -11 8
-20 0 -8 -7 -24 -9 -37 -4 -40 12 -232 13 -247 0 -11 -8 -13 -8 -8 1 4 6 3 14
-3 18 -13 8 -13 84 1 123 l11 31 131 3 130 3 28 54 c36 70 71 105 133 136 63
32 106 34 99 5z m133 -15 c50 -29 96 -91 115 -153 15 -50 15 -50 166 -54 61
-2 115 -6 119 -11 9 -9 11 -128 2 -142 -4 -7 -64 -6 -165 1 -87 5 -160 8 -163
5 -3 -4 -26 -7 -51 -8 l-46 -2 43 65 c24 35 46 80 50 99 15 82 -26 168 -98
204 -24 11 -37 21 -29 21 8 0 34 -11 57 -25z m-1205 -8 c-10 -9 -11 -8 -5 6 3
10 9 15 12 12 3 -3 0 -11 -7 -18z m1119 7 c0 -2 -9 -4 -20 -4 -11 0 -20 4 -20
9 0 5 9 7 20 4 11 -3 20 -7 20 -9z m1323 -4 c3 -11 1 -18 -4 -14 -5 3 -9 12
-9 20 0 20 7 17 13 -6z m-2613 0 c0 -5 -5 -10 -11 -10 -5 0 -7 5 -4 10 3 6 8
10 11 10 2 0 4 -4 4 -10z m110 0 c0 -5 -5 -10 -11 -10 -5 0 -7 5 -4 10 3 6 8
10 11 10 2 0 4 -4 4 -10z m1205 0 c3 -5 1 -10 -4 -10 -6 0 -11 5 -11 10 0 6 2
10 4 10 3 0 8 -4 11 -10z m-1131 -25 c-4 -8 -11 -15 -16 -15 -6 0 -5 6 2 15 7
8 14 15 16 15 2 0 1 -7 -2 -15z m429 0 c-3 -9 -8 -14 -10 -11 -3 3 -2 9 2 15
9 16 15 13 8 -4z m678 4 c19 -7 45 -21 58 -33 25 -22 20 -6 -8 28 -9 11 -11
16 -4 12 7 -3 22 -21 35 -38 12 -17 17 -28 10 -24 -7 4 -12 2 -12 -3 0 -6 -13
-11 -30 -11 -25 0 -30 4 -30 24 0 28 -16 36 -71 36 -34 0 -43 -5 -57 -30 -9
-16 -25 -30 -34 -30 -41 0 -1 44 59 66 47 16 43 16 84 3z m-925 -17 c-10 -16
-86 -65 -92 -59 -3 3 7 12 23 20 15 8 37 24 47 36 18 20 34 22 22 3z m2239
-22 c-8 -16 -15 -32 -15 -35 2 -14 -19 -39 -27 -32 -4 5 0 14 9 21 10 7 15 16
11 20 -8 7 17 56 29 56 5 0 2 -13 -7 -30z m-1735 6 c0 -3 -4 -8 -10 -11 -5 -3
-10 -1 -10 4 0 6 5 11 10 11 6 0 10 -2 10 -4z m-45 -16 c-3 -5 -10 -10 -16
-10 -5 0 -9 5 -9 10 0 6 7 10 16 10 8 0 12 -4 9 -10z m402 -39 c3 -48 -18 -71
-48 -53 -17 11 -19 9 -19 -22 0 -29 -3 -33 -20 -29 -24 7 -32 30 -22 68 6 20
15 30 28 30 10 0 23 6 27 13 5 7 18 17 30 22 12 5 22 9 22 9 0 1 1 -17 2 -38z
m141 -58 c-2 -36 -7 -49 -20 -51 -15 -3 -18 4 -18 47 0 45 3 51 21 51 18 0 20
-5 17 -47z m27 -58 c-14 -38 -51 -84 -61 -77 -10 6 -25 1 -19 -7 3 -5 0 -13
-6 -17 -8 -4 -9 -3 -5 4 4 7 1 12 -9 12 -9 0 -14 -3 -12 -7 3 -5 -16 -7 -41
-6 l-47 1 40 -8 40 -8 -40 2 c-25 0 -39 5 -38 13 2 6 -6 15 -17 18 -18 6 -74
64 -68 70 2 2 15 1 29 -2 20 -4 28 -13 33 -33 4 -23 12 -30 40 -35 48 -10 76
2 88 37 9 26 14 29 44 26 30 -3 35 0 44 26 5 16 11 45 12 65 l1 36 4 -34 c3
-19 -3 -53 -12 -76z m-1198 89 c-3 -3 -12 -4 -19 -1 -8 3 -5 6 6 6 11 1 17 -2
13 -5z m2341 -49 c-13 -19 -26 -35 -31 -35 -4 0 3 16 15 35 13 19 26 35 31 35
4 0 -3 -16 -15 -35z m-1397 -108 c23 -21 34 -34 23 -31 -39 15 -95 92 -94 131
1 10 7 0 15 -22 8 -22 32 -57 56 -78z m-1016 63 c-3 -5 -11 -10 -16 -10 -6 0
-7 5 -4 10 3 6 11 10 16 10 6 0 7 -4 4 -10z m36 -14 c5 3 9 1 9 -4 0 -6 -11
-9 -24 -8 -19 1 -22 4 -13 15 8 9 12 10 15 2 2 -6 8 -9 13 -5z m2345 2 c4 -7
4 -10 0 -7 -4 4 -19 -4 -33 -17 -14 -13 -28 -22 -31 -19 -4 4 47 55 55 55 1 0
5 -6 9 -12z m-2301 -28 c3 -6 -1 -7 -9 -4 -18 7 -21 14 -7 14 6 0 13 -4 16
-10z m2225 -19 c0 -6 -4 -13 -10 -16 -5 -3 -10 1 -10 9 0 9 5 16 10 16 6 0 10
-4 10 -9z m-1800 -21 c0 -5 -5 -10 -11 -10 -5 0 -7 5 -4 10 3 6 8 10 11 10 2
0 4 -4 4 -10z m1765 1 c3 -5 2 -12 -3 -15 -5 -3 -9 1 -9 9 0 17 3 19 12 6z
m-2500 -68 c-7 -68 -15 -88 -33 -82 -9 4 25 149 35 149 2 0 1 -30 -2 -67z
m2445 47 c0 -5 -2 -10 -4 -10 -3 0 -8 5 -11 10 -3 6 -1 10 4 10 6 0 11 -4 11
-10z m-433 -16 c-3 -3 -12 -4 -19 -1 -8 3 -5 6 6 6 11 1 17 -2 13 -5z m83 2
c0 -2 -7 -7 -16 -10 -8 -3 -12 -2 -9 4 6 10 25 14 25 6z m40 -1 c0 -2 -10 -9
-22 -15 -22 -11 -22 -10 -4 4 21 17 26 19 26 11z m80 1 c0 -2 -8 -10 -17 -17
-16 -13 -17 -12 -4 4 13 16 21 21 21 13z m110 0 c0 -3 -4 -8 -10 -11 -5 -3
-10 -1 -10 4 0 6 5 11 10 11 6 0 10 -2 10 -4z m-1407 -23 c-7 -2 -21 -2 -30 0
-10 3 -4 5 12 5 17 0 24 -2 18 -5z m544 -19 c-3 -3 -12 -4 -19 -1 -8 3 -5 6 6
6 11 1 17 -2 13 -5z m-1712 -94 c-10 -11 -23 -20 -28 -20 -6 0 -2 9 8 20 10
11 23 20 28 20 6 0 2 -9 -8 -20z m2178 -35 c-3 -9 -8 -14 -10 -11 -3 3 -2 9 2
15 9 16 15 13 8 -4z m-2222 -28 c-10 -9 -11 -8 -5 6 3 10 9 15 12 12 3 -3 0
-11 -7 -18z m-17 -23 c5 -14 4 -15 -9 -4 -17 14 -19 20 -6 20 5 0 12 -7 15
-16z m46 -43 c0 -5 -7 -11 -15 -15 -15 -5 -20 5 -8 17 9 10 23 9 23 -2z m239
-194 c-3 -163 -5 -183 -19 -180 -16 4 -154 -26 -194 -43 -18 -7 -19 -4 -13 62
4 38 19 103 33 145 l27 77 43 5 c54 6 72 20 96 75 10 23 21 42 24 42 3 0 4
-83 3 -183z m-89 119 c0 -2 -7 -6 -15 -10 -8 -3 -15 -1 -15 4 0 6 7 10 15 10
8 0 15 -2 15 -4z m3313 -231 c-3 -9 -8 -14 -10 -11 -3 3 -2 9 2 15 9 16 15 13
8 -4z m-3813 -269 c0 -2 -8 -10 -17 -17 -16 -13 -17 -12 -4 4 13 16 21 21 21
13z m592 -137 c-4 -3 -29 -14 -56 -22 -43 -15 -51 -15 -76 -2 -30 16 -60 51
-60 72 0 7 42 25 93 42 l92 29 7 -56 c4 -31 4 -59 0 -63z m-669 67 c-10 -13
-20 -22 -22 -20 -4 4 29 44 36 44 2 0 -4 -11 -14 -24z m-19 -78 c3 -14 18 -41
33 -60 l26 -33 -32 30 c-22 22 -33 43 -36 70 -5 42 -1 39 9 -7z m425 -115 c14
-7 43 -12 64 -13 64 0 40 -17 -35 -24 -77 -7 -157 -2 -247 16 l-54 10 44 39
c24 21 52 38 62 39 11 0 15 4 11 12 -5 8 -2 9 12 4 10 -4 15 -4 12 0 -4 3 -2
12 5 18 8 10 21 1 55 -38 25 -28 57 -56 71 -63z m-239 66 c-70 -38 -79 -47
-60 -59 22 -14 7 -12 -31 4 l-34 14 75 35 c93 44 125 47 50 6z m-179 -46 c13
-16 12 -17 -3 -4 -10 7 -18 15 -18 17 0 8 8 3 21 -13z m-27 -34 c-3 -5 -10 -7
-15 -3 -5 3 -7 10 -3 15 3 5 10 7 15 3 5 -3 7 -10 3 -15z m2 -76 c1 -7 -2 -13
-7 -13 -5 0 -9 3 -9 8 0 4 -3 18 -6 32 -5 24 -5 24 7 5 7 -11 14 -26 15 -32z
m1089 -33 c-29 -30 -101 -62 -165 -74 -19 -3 -4 5 33 18 67 24 137 64 137 79
0 4 5 7 12 7 6 0 -1 -13 -17 -30z m-208 -86 c-3 -3 -12 -4 -19 -1 -8 3 -5 6 6
6 11 1 17 -2 13 -5z"/>
<path d="M1927 3319 c4 -13 8 -18 11 -10 2 7 -1 18 -6 23 -8 8 -9 4 -5 -13z"/>
<path d="M1575 3030 c-3 -5 -1 -10 4 -10 6 0 11 5 11 10 0 6 -2 10 -4 10 -3 0
-8 -4 -11 -10z"/>
<path d="M3294 3039 c-3 -6 -2 -15 3 -20 5 -5 9 -1 9 11 0 23 -2 24 -12 9z"/>
<path d="M3325 3000 c-3 -5 -1 -10 4 -10 6 0 11 5 11 10 0 6 -2 10 -4 10 -3 0
-8 -4 -11 -10z"/>
<path d="M3320 2964 c0 -14 3 -14 15 -4 8 7 15 14 15 16 0 2 -7 4 -15 4 -8 0
-15 -7 -15 -16z"/>
<path d="M3215 2950 c3 -5 8 -10 11 -10 2 0 4 5 4 10 0 6 -5 10 -11 10 -5 0
-7 -4 -4 -10z"/>
<path d="M3310 2925 c0 -8 5 -15 10 -15 6 0 10 7 10 15 0 8 -4 15 -10 15 -5 0
-10 -7 -10 -15z"/>
<path d="M3567 2889 c7 -7 15 -10 18 -7 3 3 -2 9 -12 12 -14 6 -15 5 -6 -5z"/>
<path d="M1805 3090 c-3 -5 -1 -10 4 -10 6 0 11 5 11 10 0 6 -2 10 -4 10 -3 0
-8 -4 -11 -10z"/>
<path d="M2130 2839 c0 -5 5 -7 10 -4 6 3 10 8 10 11 0 2 -4 4 -10 4 -5 0 -10
-5 -10 -11z"/>
<path d="M3298 2613 c7 -3 16 -2 19 1 4 3 -2 6 -13 5 -11 0 -14 -3 -6 -6z"/>
<path d="M3236 2545 c4 -8 11 -15 16 -15 6 0 5 6 -2 15 -7 8 -14 15 -16 15 -2
0 -1 -7 2 -15z"/>
<path d="M2462 2502 c-7 -21 -6 -31 5 -41 13 -12 14 -11 8 8 -4 12 -2 28 5 36
7 8 7 16 1 19 -5 3 -13 -6 -19 -22z"/>
<path d="M2469 2103 c-13 -16 -12 -17 4 -4 9 7 17 15 17 17 0 8 -8 3 -21 -13z"/>
<path d="M4008 903 c7 -3 16 -2 19 1 4 3 -2 6 -13 5 -11 0 -14 -3 -6 -6z"/>
</g>
</svg>
