<?xml version="1.0" standalone="no"?>
<!DOCTYPE svg PUBLIC "-//W3C//DTD SVG 20010904//EN"
 "http://www.w3.org/TR/2001/REC-SVG-20010904/DTD/svg10.dtd">
<svg version="1.0" xmlns="http://www.w3.org/2000/svg"
 width="354.000000pt" height="354.000000pt" viewBox="0 0 354.000000 354.000000"
 preserveAspectRatio="xMidYMid meet">
<metadata>
Created by potrace 1.16, written by Peter Selinger 2001-2019
</metadata>
<g transform="translate(0.000000,354.000000) scale(0.100000,-0.100000)"
fill="#000000" stroke="none">
<path d="M1741 3456 c-7 -8 -8 -17 -3 -20 6 -3 13 1 16 10 9 23 2 28 -13 10z"/>
<path d="M1814 3416 c-9 -20 -9 -23 2 -19 8 3 14 14 14 24 0 25 -3 24 -16 -5z"/>
<path d="M1901 3414 c0 -11 3 -14 6 -6 3 7 2 16 -1 19 -3 4 -6 -2 -5 -13z"/>
<path d="M1760 3400 c0 -5 5 -10 11 -10 5 0 7 5 4 10 -3 6 -8 10 -11 10 -2 0
-4 -4 -4 -10z"/>
<path d="M1730 3383 c0 -10 8 -27 17 -38 l16 -20 -8 20 c-4 11 -7 28 -7 38 0
9 -3 17 -9 17 -5 0 -9 -8 -9 -17z"/>
<path d="M1927 3383 c-9 -9 12 -33 30 -33 11 0 11 4 3 20 -11 21 -22 25 -33
13z"/>
<path d="M1850 3376 c0 -2 7 -9 15 -16 9 -7 15 -8 15 -2 0 5 -7 12 -15 16 -8
3 -15 4 -15 2z"/>
<path d="M1708 3310 c-12 -14 -15 -26 -8 -47 l8 -28 1 33 c1 21 6 32 16 32 8
0 15 7 15 15 0 20 -11 18 -32 -5z"/>
<path d="M1860 3314 c0 -8 14 -28 31 -43 19 -18 26 -30 19 -33 -32 -10 28 -78
70 -78 23 0 8 21 -20 26 -16 4 -35 13 -42 21 -10 13 -7 19 15 35 15 11 25 24
21 29 -8 13 10 11 24 -3 6 -6 15 -8 19 -5 4 4 -1 15 -10 24 -15 16 -18 15 -36
-1 -17 -16 -23 -16 -48 -4 -16 8 -27 21 -27 31 1 9 -2 17 -7 17 -5 0 -9 -7 -9
-16z"/>
<path d="M1726 3265 c-3 -8 -1 -15 4 -15 6 0 10 7 10 15 0 8 -2 15 -4 15 -2 0
-6 -7 -10 -15z"/>
<path d="M1666 3219 c-9 -12 -15 -27 -12 -35 3 -7 -1 -20 -9 -28 -23 -22 -18
-32 5 -11 11 10 20 28 20 40 0 11 5 26 12 33 6 6 9 14 7 17 -3 2 -13 -5 -23
-16z"/>
<path d="M1976 3212 c-3 -2 11 -13 31 -23 39 -20 53 -18 34 5 -12 14 -57 27
-65 18z"/>
<path d="M1684 3165 c-10 -26 1 -35 13 -10 6 14 7 25 2 25 -5 0 -12 -7 -15
-15z"/>
<path d="M1940 3139 c0 -5 5 -7 10 -4 6 3 10 8 10 11 0 2 -4 4 -10 4 -5 0 -10
-5 -10 -11z"/>
<path d="M2015 3120 c-4 -6 3 -10 14 -10 25 0 27 6 6 13 -8 4 -17 2 -20 -3z"/>
<path d="M1610 3120 c-1 -3 -4 -15 -5 -28 -1 -15 1 -20 7 -14 6 6 8 18 5 28
-3 11 -6 17 -7 14z"/>
<path d="M1950 3111 c0 -10 45 -41 59 -41 5 0 12 7 15 16 4 11 2 15 -8 11 -7
-3 -25 1 -40 8 -14 8 -26 10 -26 6z"/>
<path d="M1649 3073 c-13 -16 -12 -17 4 -4 9 7 17 15 17 17 0 8 -8 3 -21 -13z"/>
<path d="M1563 3053 c-7 -2 -13 -21 -13 -40 0 -37 8 -41 14 -7 3 11 7 27 11
37 8 18 7 18 -12 10z"/>
<path d="M1980 3047 c0 -21 30 -57 48 -57 14 1 14 2 -3 12 -26 15 -36 30 -30
46 2 6 0 12 -5 12 -6 0 -10 -6 -10 -13z"/>
<path d="M2045 3030 c-3 -5 1 -10 9 -10 9 0 16 5 16 10 0 6 -4 10 -9 10 -6 0
-13 -4 -16 -10z"/>
<path d="M2058 3003 c7 -3 16 -2 19 1 4 3 -2 6 -13 5 -11 0 -14 -3 -6 -6z"/>
<path d="M1580 2970 c0 -5 5 -10 11 -10 5 0 7 5 4 10 -3 6 -8 10 -11 10 -2 0
-4 -4 -4 -10z"/>
<path d="M2020 2958 c0 -7 4 -19 9 -27 7 -10 9 -7 8 12 -2 26 -17 39 -17 15z"/>
<path d="M2077 2944 c-10 -11 5 -34 22 -34 13 1 13 3 -4 12 -19 11 -19 11 0
19 15 6 16 8 4 8 -9 1 -18 -2 -22 -5z"/>
<path d="M1505 2921 c-5 -18 -3 -28 11 -38 24 -18 27 -11 11 28 -14 34 -14 34
-22 10z"/>
<path d="M2060 2851 c0 -6 4 -13 10 -16 6 -3 7 1 4 9 -7 18 -14 21 -14 7z"/>
<path d="M2128 2833 c7 -3 16 -2 19 1 4 3 -2 6 -13 5 -11 0 -14 -3 -6 -6z"/>
<path d="M1450 2820 c0 -5 5 -10 10 -10 6 0 10 5 10 10 0 6 -4 10 -10 10 -5 0
-10 -4 -10 -10z"/>
<path d="M1497 2784 c9 -15 19 -21 21 -15 4 13 -16 41 -29 41 -5 0 -2 -12 8
-26z"/>
<path d="M2091 2792 c-3 -41 44 -78 72 -57 16 11 16 13 2 19 -11 4 -14 2 -9
-6 5 -8 2 -9 -10 -5 -10 4 -21 7 -26 7 -5 0 -13 12 -18 28 -6 15 -11 21 -11
14z"/>
<path d="M1438 2723 c6 -2 12 -13 12 -24 0 -19 11 -25 23 -13 11 11 -13 44
-31 43 -10 0 -12 -3 -4 -6z"/>
<path d="M2130 2705 c0 -5 5 -17 10 -25 5 -8 10 -10 10 -5 0 6 -5 17 -10 25
-5 8 -10 11 -10 5z"/>
<path d="M1360 2665 c0 -16 6 -25 15 -25 9 0 20 -12 25 -26 11 -27 30 -24 30
6 0 11 -10 20 -25 24 -16 4 -25 13 -25 26 0 11 -4 20 -10 20 -5 0 -10 -11 -10
-25z"/>
<path d="M2171 2620 c0 -8 4 -22 9 -30 12 -18 12 -2 0 25 -6 13 -9 15 -9 5z"/>
<path d="M1318 2597 c-7 -18 2 -37 17 -37 8 0 11 7 8 20 -7 25 -19 34 -25 17z"/>
<path d="M2207 2530 c3 -11 9 -22 13 -25 5 -3 6 4 3 15 -3 11 -9 22 -13 25 -5
3 -6 -4 -3 -15z"/>
<path d="M2278 2493 c7 -3 16 -2 19 1 4 3 -2 6 -13 5 -11 0 -14 -3 -6 -6z"/>
<path d="M2250 2440 c6 -11 12 -20 14 -20 2 0 2 9 -1 20 -3 11 -9 20 -15 20
-5 0 -4 -9 2 -20z"/>
<path d="M2297 2419 c7 -7 15 -10 18 -7 3 3 -2 9 -12 12 -14 6 -15 5 -6 -5z"/>
<path d="M1255 2387 c-4 -10 -5 -21 -1 -24 10 -10 18 4 13 24 -4 17 -4 17 -12
0z"/>
<path d="M2287 2363 c9 -27 34 -53 50 -53 8 0 12 4 9 9 -4 5 -1 11 6 13 7 3 5
7 -6 11 -11 4 -15 3 -10 -4 4 -7 1 -10 -7 -7 -8 2 -18 14 -24 26 -12 26 -27
30 -18 5z"/>
<path d="M1230 2330 c-8 -5 -11 -12 -7 -16 4 -4 13 -2 19 4 6 6 10 14 7 16 -2
3 -11 1 -19 -4z"/>
<path d="M1200 2302 c0 -18 4 -32 9 -32 5 0 8 11 6 25 -4 38 -15 43 -15 7z"/>
<path d="M2326 2280 c3 -14 12 -31 19 -39 15 -16 45 -8 44 11 0 9 -2 10 -5 1
-8 -17 -32 -5 -50 26 l-15 26 7 -25z"/>
<path d="M2410 2290 c0 -5 5 -10 11 -10 5 0 7 5 4 10 -3 6 -8 10 -11 10 -2 0
-4 -4 -4 -10z"/>
<path d="M1170 2260 c0 -5 -6 -10 -13 -10 -7 0 -14 -13 -15 -30 -1 -16 3 -30
8 -30 6 0 8 4 5 10 -8 13 14 52 26 45 5 -4 9 1 9 9 0 9 -4 16 -10 16 -5 0 -10
-4 -10 -10z"/>
<path d="M2361 2210 c-1 -23 28 -60 47 -60 13 0 11 5 -10 23 -14 12 -28 29
-31 37 -5 13 -6 13 -6 0z"/>
<path d="M1090 2150 c0 -16 5 -30 11 -30 6 0 8 9 4 20 -4 12 -2 20 5 20 6 0 8
5 5 10 -12 20 -25 9 -25 -20z"/>
<path d="M2406 2117 c3 -10 9 -15 12 -12 3 3 0 11 -7 18 -10 9 -11 8 -5 -6z"/>
<path d="M1054 2102 c-13 -9 -28 -62 -17 -62 5 0 13 16 19 35 6 19 11 35 10
35 -1 0 -6 -4 -12 -8z"/>
<path d="M2450 2102 c0 -12 19 -26 26 -19 2 2 -2 10 -11 17 -9 8 -15 8 -15 2z"/>
<path d="M2450 2053 c0 -4 5 -15 10 -23 8 -13 10 -13 10 2 0 9 -4 20 -10 23
-5 3 -10 3 -10 -2z"/>
<path d="M1045 2019 c-4 -6 -5 -12 -2 -15 2 -3 7 2 10 11 7 17 1 20 -8 4z"/>
<path d="M987 1998 c-9 -31 -2 -33 11 -3 6 14 8 25 3 25 -5 0 -11 -10 -14 -22z"/>
<path d="M2520 1991 c0 -5 5 -13 10 -16 6 -3 10 -2 10 4 0 5 -4 13 -10 16 -5
3 -10 2 -10 -4z"/>
<path d="M941 1932 c-14 -27 -12 -35 8 -23 7 5 11 17 9 27 -4 17 -5 17 -17 -4z"/>
<path d="M2579 1932 c6 -11 11 -23 11 -26 0 -13 -24 -5 -36 12 -7 9 -14 12
-14 5 0 -6 10 -20 23 -30 21 -17 97 -127 127 -183 24 -44 59 -199 47 -207 -21
-13 -437 -32 -834 -39 -221 -4 -400 -11 -397 -16 3 -4 -66 -7 -153 -6 -91 0
-139 4 -113 7 38 6 28 8 -60 14 -145 10 -191 11 -217 3 -12 -4 -24 -2 -27 3
-4 6 -13 8 -20 5 -9 -3 -15 -37 -20 -107 -11 -154 -7 -147 -82 -147 -62 0 -64
1 -64 25 0 14 9 67 21 118 11 50 18 104 15 120 -3 15 -1 27 5 27 6 0 7 -5 3
-12 -4 -7 -3 -8 5 -4 6 4 9 11 6 16 -3 5 3 32 14 59 10 28 16 51 12 51 -3 0
-14 -22 -24 -49 -13 -37 -23 -50 -42 -55 -14 -4 -30 -17 -35 -30 -5 -13 -14
-27 -20 -31 -5 -3 -8 -11 -5 -16 3 -5 -4 -19 -15 -31 -23 -25 -23 -10 -2 -208
4 -36 3 -148 -2 -250 -4 -102 -9 -264 -9 -360 -1 -161 1 -180 22 -234 30 -75
83 -128 155 -155 56 -21 67 -21 849 -21 990 0 987 0 1074 114 69 90 74 148 48
586 -19 335 -22 547 -7 562 7 7 12 37 12 67 0 57 -17 97 -60 143 -39 42 -151
215 -164 253 -8 22 -19 41 -26 43 -9 3 -9 -1 -1 -16z m-3 -469 c-7 -8 -56 -12
-198 -17 -53 -2 -101 -7 -107 -11 -6 -3 -11 -1 -11 5 0 6 -5 8 -11 4 -18 -11
-619 -20 -696 -11 -68 9 -3 12 250 13 287 1 646 10 652 16 2 2 31 4 65 5 35 1
59 -1 56 -4z m34 3 c0 -3 -4 -8 -10 -11 -5 -3 -10 -1 -10 4 0 6 5 11 10 11 6
0 10 -2 10 -4z m-1530 -16 c0 -7 -81 -1 -89 6 -3 2 16 4 42 3 26 -1 47 -5 47
-9z m110 -6 c0 -2 -16 -4 -35 -4 -19 0 -35 4 -35 8 0 4 16 6 35 4 19 -2 35 -6
35 -8z m-487 -69 c-7 -21 -13 -19 -13 6 0 11 4 18 10 14 5 -3 7 -12 3 -20z
m1288 -157 c4 -6 7 -32 8 -60 0 -27 3 -53 6 -58 3 -5 -71 -6 -172 -2 -209 8
-279 9 -313 2 -24 -5 -25 -3 -28 54 -2 32 -1 64 1 71 6 14 489 8 498 -7z"/>
<path d="M1960 1119 c0 -5 5 -7 10 -4 6 3 10 8 10 11 0 2 -4 4 -10 4 -5 0 -10
-5 -10 -11z"/>
<path d="M900 1876 c-6 -9 -10 -21 -8 -28 3 -8 9 -4 17 10 15 28 9 39 -9 18z"/>
<path d="M960 1880 c0 -4 7 -7 15 -6 23 3 26 12 5 13 -11 1 -20 -2 -20 -7z"/>
<path d="M870 1825 c0 -2 9 -9 20 -15 16 -9 18 -8 14 5 -5 13 -34 22 -34 10z"/>
<path d="M892 1750 c-18 -29 -15 -33 8 -10 21 21 25 30 12 30 -4 0 -13 -9 -20
-20z"/>
<path d="M820 1700 c-9 -6 -10 -10 -3 -10 6 0 15 5 18 10 8 12 4 12 -15 0z"/>
<path d="M742 1622 c-34 -32 -62 -61 -62 -65 0 -13 75 51 100 85 17 23 24 27
31 17 6 -9 9 -10 9 -2 0 28 -20 19 -78 -35z"/>
<path d="M852 1541 c-11 -7 -11 -9 2 -14 10 -4 16 -1 16 8 0 17 -1 17 -18 6z"/>
</g>
</svg>
